<svg xmlns="http://www.w3.org/2000/svg" xmlns:xlink="http://www.w3.org/1999/xlink" viewBox="0 0 2834.65 2834.65" xmlns:v="https://vecta.io/nano"><style><![CDATA[.BM{fill:#1a1a1a}]]></style><defs><linearGradient id="A" x1="2266.03" y1="1948.57" x2="1833.66" y2="1948.57" xlink:href="#Aj"><stop offset="0" stop-color="#462523"/><stop offset="0" stop-color="#4b2a25"/><stop offset=".04" stop-color="#724c32"/><stop offset=".08" stop-color="#92693d"/><stop offset=".12" stop-color="#ab7f46"/><stop offset=".16" stop-color="#bd8f4c"/><stop offset=".2" stop-color="#c89850"/><stop offset=".25" stop-color="#cb9b51"/><stop offset=".29" stop-color="#cea054"/><stop offset=".35" stop-color="#d7ae5c"/><stop offset=".4" stop-color="#e5c569"/><stop offset=".45" stop-color="#f6e27a"/><stop offset=".5" stop-color="#f6f28f"/><stop offset=".53" stop-color="#f6e780"/><stop offset=".55" stop-color="#f6e27a"/><stop offset=".75" stop-color="#d2a962"/><stop offset=".85" stop-color="#d0a761"/><stop offset=".89" stop-color="#c9a15e"/><stop offset=".92" stop-color="#bd9558"/><stop offset=".94" stop-color="#ac8551"/><stop offset=".96" stop-color="#957046"/><stop offset=".98" stop-color="#7a553a"/><stop offset="1" stop-color="#5a372b"/><stop offset="1" stop-color="#4e2c26"/></linearGradient><linearGradient id="B" x1="2266.73" y1="1899.17" x2="1832.37" y2="1899.17" xlink:href="#A"/><linearGradient id="C" x1="2267.37" y1="1849.78" x2="1831.18" y2="1849.78" xlink:href="#A"/><linearGradient id="D" x1="2267.96" y1="1800.39" x2="1830.1" y2="1800.39" xlink:href="#A"/><linearGradient id="E" x1="2268.49" y1="1751" x2="1829.12" y2="1751" xlink:href="#A"/><linearGradient id="F" x1="2269.4" y1="1652.21" x2="1827.46" y2="1652.21" xlink:href="#A"/><linearGradient id="G" x1="2268.97" y1="1701.61" x2="1828.24" y2="1701.61" xlink:href="#A"/><linearGradient id="H" x1="2269.76" y1="1602.82" x2="1826.78" y2="1602.82" xlink:href="#A"/><linearGradient id="I" x1="2270.07" y1="1553.43" x2="1826.21" y2="1553.43" xlink:href="#A"/><linearGradient id="J" x1="2270.33" y1="1504.04" x2="1825.73" y2="1504.04" xlink:href="#A"/><linearGradient id="K" x1="2270.53" y1="1454.64" x2="1825.36" y2="1454.64" xlink:href="#A"/><linearGradient id="L" x1="2270.68" y1="1405.25" x2="1825.09" y2="1405.25" xlink:href="#A"/><linearGradient id="M" x1="2270.77" y1="1355.86" x2="1824.92" y2="1355.86" xlink:href="#A"/><linearGradient id="N" x1="2270.81" y1="1306.47" x2="1824.86" y2="1306.47" xlink:href="#A"/><linearGradient id="O" x1="2270.81" y1="1251.89" x2="1824.86" y2="1251.89" xlink:href="#A"/><linearGradient id="P" x1="2270.77" y1="1202.5" x2="1824.92" y2="1202.5" xlink:href="#A"/><linearGradient id="Q" x1="2270.68" y1="1153.11" x2="1825.09" y2="1153.11" xlink:href="#A"/><linearGradient id="R" x1="2270.53" y1="1103.71" x2="1825.36" y2="1103.71" xlink:href="#A"/><linearGradient id="S" x1="2270.33" y1="1054.32" x2="1825.73" y2="1054.32" xlink:href="#A"/><linearGradient id="T" x1="2269.76" y1="955.54" x2="1826.78" y2="955.54" xlink:href="#A"/><linearGradient id="U" x1="2270.07" y1="1004.93" x2="1826.21" y2="1004.93" xlink:href="#A"/><linearGradient id="V" x1="2269.4" y1="906.15" x2="1827.46" y2="906.15" xlink:href="#A"/><linearGradient id="W" x1="2268.97" y1="856.75" x2="1828.24" y2="856.75" xlink:href="#A"/><linearGradient id="X" x1="2268.49" y1="807.36" x2="1829.12" y2="807.36" xlink:href="#A"/><linearGradient id="Y" x1="2267.96" y1="757.97" x2="1830.1" y2="757.97" xlink:href="#A"/><linearGradient id="Z" x1="2267.37" y1="708.58" x2="1831.18" y2="708.58" xlink:href="#A"/><linearGradient id="a" x1="2266.73" y1="659.19" x2="1832.37" y2="659.19" xlink:href="#A"/><linearGradient id="b" y1="609.79" y2="609.79" xlink:href="#A"/><linearGradient id="c" x1="1494.61" y1="1275.54" x2="1972.85" y2="1275.54" xlink:href="#Aj"><stop offset="0" stop-color="#462523"/><stop offset="0" stop-color="#4b2a25"/><stop offset=".04" stop-color="#724c32"/><stop offset=".08" stop-color="#92693d"/><stop offset=".12" stop-color="#ab7f46"/><stop offset=".16" stop-color="#bd8f4c"/><stop offset=".21" stop-color="#c89850"/><stop offset=".26" stop-color="#cb9b51"/><stop offset=".3" stop-color="#cfa255"/><stop offset=".36" stop-color="#dcb761"/><stop offset=".44" stop-color="#f0d874"/><stop offset=".45" stop-color="#f6e27a"/><stop offset=".53" stop-color="#f6f28f"/><stop offset=".57" stop-color="#f6ee89"/><stop offset=".62" stop-color="#f6e27a"/><stop offset=".75" stop-color="#d2a962"/><stop offset=".85" stop-color="#d0a761"/><stop offset=".89" stop-color="#c9a15e"/><stop offset=".92" stop-color="#bd9558"/><stop offset=".94" stop-color="#ac8551"/><stop offset=".96" stop-color="#957046"/><stop offset=".98" stop-color="#7a553a"/><stop offset="1" stop-color="#5a372b"/><stop offset="1" stop-color="#4e2c26"/></linearGradient><linearGradient id="d" x1="1437.63" y1="1795.5" x2="1047.72" y2="1570.39" xlink:href="#A"/><linearGradient id="e" x1="1396.94" y1="1790.34" x2="1024.42" y2="1575.27" xlink:href="#A"/><linearGradient id="f" x1="1357.2" y1="1785.97" x2="1000.33" y2="1579.93" xlink:href="#A"/><linearGradient id="g" x1="1318.44" y1="1782.24" x2="975.57" y2="1584.28" xlink:href="#A"/><linearGradient id="h" x1="1280.69" y1="1778.91" x2="950.31" y2="1588.17" xlink:href="#A"/><linearGradient id="i" x1="1243.87" y1="1775.97" x2="924.59" y2="1591.63" xlink:href="#A"/><linearGradient id="j" x1="1207.92" y1="1773.37" x2="898.46" y2="1594.7" xlink:href="#A"/><linearGradient id="k" x1="1172.78" y1="1771.08" x2="871.97" y2="1597.41" xlink:href="#A"/><linearGradient id="l" x1="1138.37" y1="1769.07" x2="845.17" y2="1599.79" xlink:href="#A"/><linearGradient id="m" x1="1104.62" y1="1767.31" x2="818.11" y2="1601.89" xlink:href="#A"/><linearGradient id="n" x1="1071.47" y1="1765.75" x2="790.84" y2="1603.73" xlink:href="#A"/><linearGradient id="o" x1="1038.85" y1="1764.37" x2="763.42" y2="1605.35" xlink:href="#A"/><linearGradient id="p" x1="1249.94" y1="1646.05" x2="1567.22" y2="1646.05" xlink:href="#Aj"><stop offset="0" stop-color="#63461f"/><stop offset=".02" stop-color="#735326"/><stop offset=".06" stop-color="#926d36"/><stop offset=".1" stop-color="#ab8142"/><stop offset=".15" stop-color="#bd904a"/><stop offset=".19" stop-color="#c8984f"/><stop offset=".25" stop-color="#cb9b51"/><stop offset=".34" stop-color="#d5ac5b"/><stop offset=".52" stop-color="#efd773"/><stop offset=".57" stop-color="#f6e27a"/><stop offset=".59" stop-color="#f6e983"/><stop offset=".62" stop-color="#f6f08c"/><stop offset=".66" stop-color="#f6f28f"/><stop offset=".71" stop-color="#f6ea84"/><stop offset=".77" stop-color="#f6e27a"/><stop offset=".83" stop-color="#e6c86f"/><stop offset=".89" stop-color="#d7b166"/><stop offset=".93" stop-color="#d2a962"/></linearGradient><linearGradient id="q" x1="890.15" y1="1966.23" x2="416.17" y2="1966.23" xlink:href="#Aj"><stop offset="0" stop-color="#462523"/><stop offset="0" stop-color="#4b2a25"/><stop offset=".04" stop-color="#724c32"/><stop offset=".08" stop-color="#92693d"/><stop offset=".12" stop-color="#ab7f46"/><stop offset=".16" stop-color="#bd8f4c"/><stop offset=".2" stop-color="#c89850"/><stop offset=".25" stop-color="#cb9b51"/><stop offset=".29" stop-color="#cea054"/><stop offset=".34" stop-color="#d7ae5c"/><stop offset=".4" stop-color="#e5c569"/><stop offset=".45" stop-color="#f6e27a"/><stop offset=".5" stop-color="#f6f2c0"/><stop offset=".51" stop-color="#f6edac"/><stop offset=".53" stop-color="#f6e791"/><stop offset=".54" stop-color="#f6e380"/><stop offset=".55" stop-color="#f6e27a"/><stop offset=".75" stop-color="#d2a962"/><stop offset=".85" stop-color="#d0a761"/><stop offset=".89" stop-color="#c9a15e"/><stop offset=".92" stop-color="#bd9558"/><stop offset=".94" stop-color="#ac8551"/><stop offset=".96" stop-color="#957046"/><stop offset=".98" stop-color="#7a553a"/><stop offset="1" stop-color="#5a372b"/><stop offset="1" stop-color="#4e2c26"/></linearGradient><linearGradient id="r" x1="888.15" y1="1925.44" x2="416.67" y2="1925.44" xlink:href="#q"/><linearGradient id="s" x1="885.97" y1="1881.86" x2="418.03" y2="1881.86" xlink:href="#q"/><linearGradient id="t" x1="883.93" y1="1838.43" x2="419.3" y2="1838.43" xlink:href="#q"/><linearGradient id="u" x1="882.03" y1="1795.08" x2="420.48" y2="1795.08" xlink:href="#q"/><linearGradient id="v" x1="878.72" y1="1708.86" x2="422.57" y2="1708.86" xlink:href="#q"/><linearGradient id="w" x1="880.3" y1="1751.91" x2="421.58" y2="1751.91" xlink:href="#q"/><linearGradient id="x" x1="877.31" y1="1665.9" x2="423.46" y2="1665.9" xlink:href="#q"/><linearGradient id="y" x1="876.07" y1="1623.02" x2="424.25" y2="1623.02" xlink:href="#q"/><linearGradient id="z" x1="874.99" y1="1580.22" x2="424.93" y2="1580.22" xlink:href="#q"/><linearGradient id="AA" x1="874.09" y1="1537.48" x2="425.49" y2="1537.48" xlink:href="#q"/><linearGradient id="AB" x1="873.37" y1="1494.79" x2="425.95" y2="1494.79" xlink:href="#q"/><linearGradient id="AC" x1="872.83" y1="1452.14" x2="426.29" y2="1452.14" xlink:href="#q"/><linearGradient id="AD" x1="872.47" y1="1409.57" x2="426.51" y2="1409.57" xlink:href="#q"/><linearGradient id="AE" x1="872.29" y1="1366.38" x2="426.62" y2="1366.38" xlink:href="#q"/><linearGradient id="AF" x1="872.39" y1="1320.36" x2="426.54" y2="1320.36" xlink:href="#q"/><linearGradient id="AG" x1="872.7" y1="1277.76" x2="426.33" y2="1277.76" xlink:href="#q"/><linearGradient id="AH" x1="873.19" y1="1235.08" x2="426.01" y2="1235.08" xlink:href="#q"/><linearGradient id="AI" x1="873.85" y1="1192.36" x2="425.58" y2="1192.36" xlink:href="#q"/><linearGradient id="AJ" x1="875.7" y1="1106.71" x2="424.38" y2="1106.71" xlink:href="#q"/><linearGradient id="AK" x1="874.69" y1="1149.57" x2="425.03" y2="1149.57" xlink:href="#q"/><linearGradient id="AL" x1="876.88" y1="1063.77" x2="423.62" y2="1063.77" xlink:href="#q"/><linearGradient id="AM" x1="878.23" y1="1020.74" x2="422.76" y2="1020.74" xlink:href="#q"/><linearGradient id="AN" x1="879.74" y1="977.59" x2="421.79" y2="977.59" xlink:href="#q"/><linearGradient id="AO" x1="881.41" y1="934.31" x2="420.73" y2="934.31" xlink:href="#q"/><linearGradient id="AP" x1="883.22" y1="890.91" x2="419.58" y2="890.91" xlink:href="#q"/><linearGradient id="AQ" x1="885.19" y1="847.36" x2="418.35" y2="847.36" xlink:href="#q"/><linearGradient id="AR" x1="887.29" y1="803.66" x2="417.04" y2="803.66" xlink:href="#q"/><linearGradient id="AS" x1="741.97" y1="1422.73" x2="890.96" y2="1422.73" xlink:href="#Aj"><stop offset="0" stop-color="#462523"/><stop offset="0" stop-color="#4b2a25"/><stop offset=".02" stop-color="#724c32"/><stop offset=".05" stop-color="#92693d"/><stop offset=".07" stop-color="#ab7f46"/><stop offset=".09" stop-color="#bd8f4c"/><stop offset=".12" stop-color="#c89850"/><stop offset=".15" stop-color="#cb9b51"/><stop offset=".2" stop-color="#cea054"/><stop offset=".26" stop-color="#d7ae5c"/><stop offset=".32" stop-color="#e5c569"/><stop offset=".38" stop-color="#f6e27a"/><stop offset=".43" stop-color="#f6f28f"/><stop offset=".49" stop-color="#f6ea85"/><stop offset=".56" stop-color="#f6e27a"/><stop offset=".75" stop-color="#d2a962"/><stop offset=".85" stop-color="#d0a761"/><stop offset=".89" stop-color="#c9a15e"/><stop offset=".92" stop-color="#bd9558"/><stop offset=".94" stop-color="#ac8551"/><stop offset=".96" stop-color="#957046"/><stop offset=".98" stop-color="#7a553a"/><stop offset="1" stop-color="#5a372b"/><stop offset="1" stop-color="#4e2c26"/></linearGradient><linearGradient id="AT" x1="225.69" y1="2028.38" x2="225.69" y2="2373.43" xlink:href="#A"/><linearGradient id="AU" x1="344.94" y1="2028.38" x2="344.94" y2="2373.43" xlink:href="#A"/><linearGradient id="AV" x1="499.28" y1="2028.38" x2="499.28" y2="2373.43" xlink:href="#A"/><linearGradient id="AW" x1="651.81" y1="2028.38" x2="651.81" y2="2373.43" xlink:href="#A"/><linearGradient id="AX" x1="803.06" y1="2028.38" x2="803.06" y2="2373.43" xlink:href="#A"/><linearGradient id="AY" x1="982.88" y1="2028.38" x2="982.88" y2="2373.43" xlink:href="#A"/><linearGradient id="AZ" x1="1138.97" y1="2028.38" x2="1138.97" y2="2373.43" xlink:href="#A"/><linearGradient id="Aa" x1="1306.79" y1="2028.38" x2="1306.79" y2="2373.43" xlink:href="#A"/><linearGradient id="Ab" x1="1528.88" y1="2028.38" x2="1528.88" y2="2373.43" xlink:href="#A"/><linearGradient id="Ac" x1="1692.27" y1="2028.38" x2="1692.27" y2="2373.43" xlink:href="#A"/><linearGradient id="Ad" x1="1881.76" y1="2028.38" x2="1881.76" y2="2373.43" xlink:href="#A"/><linearGradient id="Ae" x1="2052.39" y1="2028.38" x2="2052.39" y2="2373.43" xlink:href="#A"/><linearGradient id="Af" x1="2188.94" y1="2028.38" x2="2188.94" y2="2373.43" xlink:href="#A"/><linearGradient id="Ag" x1="2365.17" y1="2028.38" x2="2365.17" y2="2373.43" xlink:href="#A"/><linearGradient id="Ah" x1="2528.93" y1="2028.38" x2="2528.93" y2="2373.43" xlink:href="#A"/><linearGradient id="Ai" x1="1415.91" y1="1797.72" x2="1436.74" y2="2095.69" xlink:href="#q"/><linearGradient id="Aj" gradientUnits="userSpaceOnUse"/></defs><path d="M0 0h2834.65v2834.65H0z" fill="#080808"/><path d="M1919.61 2065.71q-.34-19.9-.67-39.83 169.66-142.52 339.13-194.46-.24 14.73-.49 29.45-168.99 54.74-337.97 204.84z" transform="translate(.22 -1.03)" fill="url(#A)"/><path d="M2258.14 1860.03q-169.32 54.76-338.65 205.37-.35-20.32-.68-40.65 170.01-142.78 339.84-194.78zm-337.92 203.94q168.63-149.62 337.27-204.31.26-14.43.49-28.87-169.12 52-338.42 194.17.28 19.5.66 39.01z" class="BM"/><path d="M1918.67 2008.93q-.32-19.92-.62-39.83 170.55-131.68 340.68-179.68-.21 14.73-.45 29.46-169.68 50.76-339.61 190.05z" transform="translate(.22 -1.03)" fill="url(#B)"/><path d="M2258.84 1818.04q-170 50.81-340.3 190.55-.32-20.32-.63-40.65 170.91-132 341.4-180-.23 15.08-.47 30.1zm-339.62 189.17q169.59-138.83 338.92-189.56l.45-28.86q-169.78 48-340 179.41.32 19.5.63 39.01z" class="BM"/><path d="M1917.79 1952.14l-.57-39.83q171.38-120.84 342.12-164.89-.2 14.73-.42 29.46-170.33 46.81-341.13 175.26z" transform="translate(.22 -1.03)" fill="url(#C)"/><path d="M2259.49 1776.05q-170.67 46.86-341.82 175.73-.32-20.32-.59-40.65 171.73-121.1 342.84-165.13-.21 15.03-.43 30.05zm-341.13 174.39q170.46-128 340.43-174.79.22-14.43.42-28.87-170.4 44.07-341.41 164.65.27 19.54.56 39.01z" class="BM"/><path d="M1917 1895.35q-.27-19.9-.52-39.83 172.13-110 343.43-150.1-.18 14.73-.38 29.46-170.93 42.87-342.53 160.47z" transform="translate(.22 -1.03)" fill="url(#D)"/><path d="M2260.09 1734.06q-171.27 42.91-343.23 160.91-.27-20.32-.53-40.65 172.48-110.22 344.15-150.31zm-342.53 159.62q171.26-117.21 341.83-160 .2-14.43.37-28.87-170.94 40.13-342.71 149.9.24 19.46.51 38.97z" class="BM"/><path d="M1916.26 1838.57q-.26-19.92-.48-39.83 172.82-99.16 344.63-135.31-.18 14.73-.35 29.45-171.46 38.92-343.8 145.69z" transform="translate(.22 -1.03)" fill="url(#E)"/><path d="M2260.63 1692.07q-171.81 39-344.51 146.09l-.48-40.65q173.17-99.36 345.35-135.48zm-343.8 144.9q172-106.41 343.1-145.28.18-14.45.34-28.87-171.45 36.17-343.9 135.13.21 19.47.46 39.02z" class="BM"/><path d="M1915,1725q-.2-19.9-.37-39.83,174-77.48,346.63-105.73-.14,14.73-.28,29.46Q2088.6,1639.91,1915,1725Z" transform="translate(.22 -1.03)" fill="url(#F)"/><path d="M2261.56 1608.09q-172.74 31.05-346.69 116.45-.21-20.33-.38-40.65 174.33-77.61 347.35-105.84-.13 15.01-.28 30.04zm-346 115.3q173.23-84.78 345.27-115.76.15-14.45.27-28.87-172.3 28.26-345.91 105.62.2 19.5.39 39.01z" class="BM"/><path d="M1915.59 1781.78l-.42-39.83q173.43-88.32 345.69-120.52-.15 14.73-.31 29.46-171.96 34.97-344.96 130.89z" transform="translate(.22 -1.03)" fill="url(#G)"/><path d="M2261.12 1650.08q-172.3 35-345.66 131.27-.23-20.33-.43-40.65 173.79-88.49 346.41-120.66-.15 15.02-.32 30.04zm-345 130.07q172.64-95.6 344.25-130.52l.3-28.87q-171.9 32.22-345 120.38.29 19.5.55 39.01z" class="BM"/><path d="M1914.48,1668.21q-.17-19.92-.32-39.83,174.44-66.64,347.45-90.94l-.24,29.45Q2088.6,1594,1914.48,1668.21Z" transform="translate(.22 -1.03)" fill="url(#H)"/><path d="M2261.95 1566.1q-173.13 27.11-347.61 101.63l-.33-40.65q174.81-66.75 348.18-91zm-346.89 100.52q173.76-74 346.18-101 .12-14.43.23-28.87-172.66 24.32-346.73 90.86.15 19.52.32 39.01z" class="BM"/><path d="M1914,1611.42q-.15-19.92-.27-39.83,174.84-55.8,348.14-76.15-.09,14.73-.2,29.45Q2088.6,1548,1914,1611.42Z" transform="translate(.22 -1.03)" fill="url(#I)"/><path d="M2262.28 1524.11q-173.46 23.16-348.39 86.86-.15-20.33-.28-40.65 175.21-55.87 348.88-76.2zm-347.67 85.75q174.21-63.17 347-86.25.11-14.43.19-28.86-173 20.35-347.42 76.1z" class="BM"/><path d="M1913.65 1554.63q-.12-19.91-.22-39.83 175.17-45 348.72-61.36-.08 14.73-.17 29.46-173.39 19.16-348.33 71.73z" transform="translate(.22 -1.03)" fill="url(#J)"/><path d="M2262.56 1482.12q-173.74 19.2-349.05 72-.12-20.33-.23-40.65 175.55-45 349.45-61.39-.07 15.02-.17 30.04zm-348.33 71q174.59-52.35 347.62-71.48.07-14.43.16-28.87-173.2 16.43-348 61.34.11 19.49.21 38.98z" class="BM"/><path d="M1913.34 1497.85q-.09-19.92-.17-39.83a2918.53 2918.53 0 0 1 349.17-46.58q-.06 14.73-.13 29.46a2413.21 2413.21 0 0 0-348.87 56.95z" transform="translate(.22 -1.03)" fill="url(#K)"/><path d="M2262.79 1440.13a2411.22 2411.22 0 0 0-349.57 57.18q-.09-20.33-.17-40.65a2924 2924 0 0 1 349.89-46.57q-.08 15.02-.15 30.04zm-348.86 56.2a2417.68 2417.68 0 0 1 348.14-56.73q.08-14.43.13-28.86a2910.52 2910.52 0 0 0-348.44 46.58q.07 19.5.17 39.01z" class="BM"/><path d="M1913.11 1441.06q-.08-19.92-.13-39.83 175.62-23.3 349.5-31.78l-.09 29.45a3210.19 3210.19 0 0 0-349.28 42.16z" transform="translate(.22 -1.03)" fill="url(#L)"/><path d="M2262.96 1398.14a3202.09 3202.09 0 0 0-350 42.36q-.07-20.33-.13-40.65 176-23.28 350.22-31.75-.03 15.03-.09 30.04zm-349.27 41.42a3218.84 3218.84 0 0 1 348.56-42l.09-28.87q-173.53 8.52-348.77 31.82.05 19.55.12 39.05z" class="BM"/><path d="M1912.94 1384.27q0-19.9-.07-39.82 175.73-12.46 349.69-17 0 14.73 0 29.45-173.96 7.32-349.62 27.37z" transform="translate(.22 -1.03)" fill="url(#M)"/><path d="M2263.09 1356.16q-174.27 7.33-350.29 27.53 0-20.33-.08-40.65 176.1-12.42 350.42-16.93-.02 15.03-.05 30.05zm-349.57 26.64q175.29-19.92 348.85-27.21 0-14.43 0-28.87-173.61 4.57-349 17.07.11 19.52.15 39.01z" class="BM"/><path d="M1912.84 1327.49q0-19.92 0-39.83 175.77-1.62 349.78-2.21 0 14.73 0 29.46-174.02 3.36-349.78 12.58z" transform="translate(.22 -1.03)" fill="url(#N)"/><path d="M2263.16 1314.17q-174.34 3.39-350.46 12.71 0-20.33 0-40.65 176.13-1.54 350.5-2.11.02 15.03-.04 30.05zm-349.73 11.87q175.38-9.12 349-12.45 0-14.44 0-28.87-173.65.62-349.06 2.31.05 19.5.06 39.01z" class="BM"/><path d="M1912.82 1270.7q0-19.92 0-39.83 175.76 9.23 349.74 12.58 0 14.73 0 29.46-173.96-.59-349.74-2.21z" transform="translate(.22 -1.03)" fill="url(#O)"/><path d="M2263.22 1272.18q-174.36-.57-350.5-2.11 0-20.32 0-40.65 176.12 9.33 350.46 12.71.04 15.03.04 30.05zm-349.78-2.91q175.41 1.7 349.06 2.31 0-14.43 0-28.87-173.62-3.33-349-12.45-.1 19.51-.1 39.01z" class="BM"/><path d="M1912.87 1213.91q0-19.9.07-39.82 175.65 20.06 349.57 27.37 0 14.71 0 29.45-173.92-4.54-349.64-17z" transform="translate(.22 -1.03)" fill="url(#P)"/><path d="M2263.14 1230.19q-174.32-4.52-350.42-16.93 0-20.32.08-40.65 176 20.19 350.29 27.53.03 15.03.05 30.05zm-349.69-17.68q175.37 12.49 349 17.07 0-14.44 0-28.87-173.55-7.29-348.85-27.21-.12 19.47-.15 39.01z" class="BM"/><path d="M1913 1157.13q.06-19.92.13-39.83a3210.19 3210.19 0 0 0 349.28 42.16l.09 29.45q-173.9-8.49-349.5-31.78z" transform="translate(.22 -1.03)" fill="url(#Q)"/><path d="M2263.06 1188.2q-174.24-8.46-350.22-31.75.06-20.32.13-40.65a3202 3202 0 0 0 350 42.35q.05 15.03.09 30.05zm-349.49-32.46q175.25 23.31 348.77 31.83l-.09-28.87a3218.89 3218.89 0 0 1-348.56-42q-.07 19.55-.12 39.04z" class="BM"/><path d="M1913.17 1100.34q.07-19.92.17-39.83a2413.21 2413.21 0 0 0 348.87 57q.08 14.73.13 29.46a2918.53 2918.53 0 0 1-349.17-46.63z" transform="translate(.22 -1.03)" fill="url(#R)"/><path d="M2262.92 1146.21a2924 2924 0 0 1-349.89-46.57q.07-20.33.17-40.65a2409.82 2409.82 0 0 0 349.59 57.17q.07 15.03.13 30.05zm-349.16-47.24a2912.56 2912.56 0 0 0 348.46 46.59q-.06-14.43-.13-28.86a2419.07 2419.07 0 0 1-348.16-56.73q-.1 19.5-.17 39z" class="BM"/><path d="M1913.43 1043.55q.1-19.9.22-39.82 174.94 52.56 348.33 71.73.09 14.73.17 29.46-173.55-16.39-348.72-61.37z" transform="translate(.22 -1.03)" fill="url(#S)"/><path d="M2262.73 1104.22q-173.91-16.37-349.45-61.39.11-20.32.23-40.64 175.31 52.79 349.05 72 .09 15 .17 30.03zm-348.72-62q174.81 44.93 348 61.34-.08-14.43-.16-28.87-173-19.12-347.62-71.48-.12 19.5-.22 39.01z" class="BM"/><path d="M1914.16,930q.15-19.92.32-39.83,174.12,74.25,346.89,101.32l.24,29.45Q2088.6,996.64,1914.16,930Z" transform="translate(.22 -1.03)" fill="url(#T)"/><path d="M2262.22 1020.24q-173.37-24.27-348.18-91l.33-40.64q174.48 74.52 347.61 101.63zm-347.45-91.55q174.07 66.54 346.73 90.86-.12-14.45-.23-28.87-172.42-27-346.18-101-.19 19.5-.35 39.01z" class="BM"/><path d="M1913.76 986.77q.12-19.92.27-39.83 174.57 63.4 347.67 86.53.11 14.71.2 29.45-173.31-20.34-348.14-76.15z" transform="translate(.22 -1.03)" fill="url(#U)"/><path d="M2262.49 1062.23q-173.67-20.33-348.88-76.21.13-20.32.28-40.64 174.93 63.66 348.39 86.81zm-348.15-76.78q174.48 55.74 347.42 76.1-.09-14.43-.19-28.87-172.76-23.07-347-86.24z" class="BM"/><path d="M1914.63 873.19q.18-19.91.37-39.82 173.6 85.08 346 116.1.15 14.73.28 29.46-172.68-28.24-346.65-105.74z" transform="translate(.22 -1.03)" fill="url(#V)"/><path d="M2261.84 978.25q-173-28.21-347.35-105.84.18-20.33.38-40.65 173.94 85.4 346.69 116.45.15 15.02.28 30.04zm-346.62-106.28q173.61 77.35 345.91 105.62-.12-14.43-.27-28.87-172-31-345.27-115.76-.2 19.47-.37 39.01z" class="BM"/><path d="M1915.17 816.41l.42-39.83q173 95.92 345 130.89.16 14.73.31 29.46-172.3-32.2-345.73-120.52z" transform="translate(.22 -1.03)" fill="url(#W)"/><path d="M2261.44 936.26q-172.62-32.17-346.41-120.66.21-20.32.43-40.65 173.35 96.25 345.66 131.27.17 15.02.32 30.04zm-345.69-121.1q173.07 88.15 345 120.38l-.3-28.87q-171.64-34.94-344.23-130.52-.27 19.5-.47 39.01z" class="BM"/><path d="M1915.78 759.62q.24-19.92.48-39.83 172.34 106.77 343.8 145.69.18 14.71.35 29.45-171.81-36.15-344.63-135.31z" transform="translate(.22 -1.03)" fill="url(#X)"/><path d="M2260.99 894.27q-172.17-36.12-345.35-135.48l.48-40.65q172.69 107.13 344.51 146.09zm-344.62-135.88q172.44 99 343.9 135.14-.16-14.43-.34-28.87-171.12-38.88-343.1-145.28-.24 19.52-.46 39.01z" class="BM"/><path d="M1916.47 702.83q.26-19.91.52-39.82 171.6 117.6 342.53 160.47.2 14.73.38 29.45-171.3-40.09-343.43-150.1z" transform="translate(.22 -1.03)" fill="url(#Y)"/><path d="M2260.48 852.28q-171.66-40.08-344.15-150.31.26-20.32.53-40.65 172 118 343.23 160.91zm-343.43-150.65q171.76 109.79 342.71 149.89-.18-14.43-.37-28.86-170.58-42.84-341.83-160-.27 19.46-.51 38.97z" class="BM"/><path d="M1917.22 646.05l.57-39.83q170.81 128.44 341.13 175.26.23 14.73.42 29.46-170.74-44.05-342.12-164.89z" transform="translate(.22 -1.03)" fill="url(#Z)"/><path d="M2259.92 810.3q-171.1-44-342.84-165.13.29-20.33.59-40.65 171.15 128.87 341.82 175.73.23 15.03.43 30.05zM1917.8 644.87q171 120.58 341.41 164.65-.21-14.43-.42-28.87-170-46.78-340.43-174.79-.28 19.5-.56 39.01z" class="BM"/><path d="M1918.05 589.26q.3-19.92.62-39.83 169.92 139.27 339.61 190.05.22 14.73.45 29.46-170.13-48-340.68-179.68z" transform="translate(.22 -1.03)" fill="url(#a)"/><path d="M2259.31 768.31q-170.49-48-341.4-180 .3-20.32.63-40.65 170.28 139.74 340.3 190.55.24 15.08.47 30.1zM1918.63 588.1q170.19 131.4 340 179.41l-.45-28.87q-169.36-50.73-338.96-189.55-.29 19.5-.59 39.01z" class="BM"/><path d="M1918.94,532.47q.33-19.9.67-39.82,169,150.11,338,204.84.26,14.71.49,29.45Q2088.6,675,1918.94,532.47Z" transform="translate(.22 -1.03)" fill="url(#b)"/><path d="M2258.65 726.32q-169.83-51.95-339.84-194.77.33-20.33.68-40.65 169.32 150.62 338.65 205.37zm-339.13-195q169.29 142.2 338.42 194.17-.24-14.44-.49-28.87-168.63-54.65-337.23-204.29-.38 19.5-.7 39.01z" class="BM"/><path d="M1905.55 2059.45l-393.65-97.34-3.96-1357.08 398.95-113.4-1.34 1567.82z" fill="url(#c)"/><path d="M1905.89 2059.89l-.43-.1-393.91-97.41v-.27l-4-1357.34.26-.07 399.41-113.54v.47zm-393.67-98.06l393 97.14 1.34-1566.91L1508.3 605.3z" class="BM"/><path d="M1226.31 2110.54q10.64 6.8 21.31 14.07a8151.37 8151.37 0 0 1 0-877.63q-10.68 7.27-21.31 14.07-20.14 424.74 0 849.49z" transform="translate(.22 -1.03)" fill="url(#d)"/><path d="M1248.22 2124.24q-11-7.53-22-14.55-20.14-424.92 0-849.85 11-7 22-14.55a8139.79 8139.79 0 0 0 0 878.95zm-21.35-14.9q10.27 6.55 20.59 13.59a8163.27 8163.27 0 0 1 0-876.32q-10.32 7-20.59 13.59-20.18 424.56 0 849.14z" class="BM"/><path d="M1194.72 2091.29q10.54 6.11 21.14 12.67-18.52-418.15 0-836.33-10.59 6.57-21.14 12.67-15.37 405.5 0 810.99z" transform="translate(.22 -1.03)" fill="url(#e)"/><path d="M1216.46 2103.55q-11-6.79-21.86-13.11-15.35-405.67 0-811.35 10.9-6.31 21.86-13.11-18.61 418.79 0 837.57zm-21.18-13.47q10.18 5.91 20.43 12.24-18.43-417.55 0-835.11-10.24 6.35-20.43 12.24-15.39 405.32 0 810.63z" class="BM"/><path d="M1163.34 2074q10.48 5.47 21 11.37-13.87-399.58 0-799.16-10.52 5.9-21 11.36-11.01 388.23 0 776.43z" transform="translate(.22 -1.03)" fill="url(#f)"/><path d="M1184.93 2084.97q-10.89-6.1-21.71-11.75-11-388.41 0-776.8 10.83-5.65 21.71-11.76-13.96 400.11 0 800.31zm-21-12.13q10.13 5.29 20.3 11-13.82-399 0-798-10.17 5.68-20.3 11-11.07 387.92-.03 775.95z" class="BM"/><path d="M1132.18 2058.57q10.41 4.88 20.86 10.15-9.68-382.92 0-765.85-10.45 5.28-20.86 10.16-7.09 372.77 0 745.54z" transform="translate(.22 -1.03)" fill="url(#g)"/><path d="M1153.62 2068.23q-10.8-5.46-21.56-10.5-7.06-373 0-745.92 10.76-5.05 21.56-10.51-9.75 383.48 0 766.93zm-20.87-10.88q10 4.73 20.15 9.8-9.62-382.38 0-764.77-10.1 5.08-20.15 9.81-7.12 372.57 0 745.16z" class="BM"/><path d="M1101.23 2044.82q10.33 4.34 20.72 9-5.9-368.05 0-736.11-10.38 4.69-20.72 9-3.58 359.08 0 718.11z" transform="translate(.22 -1.03)" fill="url(#h)"/><path d="M1122.52 2053.33q-10.72-4.87-21.41-9.34-3.57-359.22 0-718.45 10.68-4.47 21.41-9.33-5.94 368.55 0 737.12zm-20.73-9.73q10 4.18 20 8.72-5.85-367.56 0-735.1-10 4.53-20 8.71-3.57 358.85 0 717.67z" class="BM"/><path d="M1070.47 2032.64q10.27 3.84 20.59 8-2.52-354.84 0-709.69-10.32 4.17-20.59 8-.47 346.85 0 693.69z" transform="translate(.22 -1.03)" fill="url(#i)"/><path d="M1091.63 2040.08q-10.67-4.3-21.28-8.27-.45-347 0-694.09 10.62-4 21.28-8.27-2.56 355.32 0 710.63zm-20.59-8.67q9.93 3.7 19.89 7.72-2.48-354.36 0-708.73-10 4-19.89 7.72-.51 346.65 0 693.29z" class="BM"/><path d="M1039.9 2021.89q10.21 3.38 20.47 7 .47-343.14 0-686.29-10.26 3.67-20.47 7 2.27 336.2 0 672.29z" transform="translate(.22 -1.03)" fill="url(#j)"/><path d="M1060.93 2028.36q-10.59-3.81-21.15-7.3 2.3-336.28 0-672.59 10.56-3.49 21.15-7.3.44 343.59 0 687.19zm-20.46-7.71q9.87 3.27 19.77 6.81.51-342.69 0-685.39-9.9 3.54-19.77 6.81 2.22 335.88 0 671.77z" class="BM"/><path d="M1009.51 2012.42q10.15 3 20.35 6.21 3.08-332.83 0-665.67-10.2 3.24-20.35 6.21 4.65 326.63 0 653.25z" transform="translate(.22 -1.03)" fill="url(#k)"/><path d="M1030.42 2018.02q-10.55-3.35-21-6.42 4.68-326.84 0-653.67 10.49-3.06 21-6.42 3.06 333.26 0 666.51zm-20.34-6.84q9.81 2.88 19.66 6 3.11-332.42 0-664.82-9.85 3.12-19.66 6 4.6 326.41 0 652.82z" class="BM"/><path d="M979.29 2004.11q10.1 2.61 20.23 5.45 5.36-323.76 0-647.53-10.12 2.85-20.23 5.45 6.71 318.32 0 636.63z" transform="translate(.22 -1.03)" fill="url(#l)"/><path d="M1000.08 2008.97q-10.49-2.94-20.91-5.64 6.72-318.52 0-637 10.42-2.7 20.91-5.64 5.34 324.08 0 648.28zm-20.22-6.07q9.75 2.52 19.55 5.27 5.37-323.37 0-646.72-9.8 2.74-19.55 5.26 6.65 318.05 0 636.15z" class="BM"/><path d="M949.23 1996.81q10 2.3 20.13 4.78 7.29-315.79 0-631.59-10.08 2.49-20.13 4.78 8.42 311.03 0 622.03z" transform="translate(.22 -1.03)" fill="url(#m)"/><path d="M969.91 2000.97q-10.43-2.6-20.8-5 8.45-311.23 0-622.47 10.38-2.36 20.8-5 7.31 316.27 0 632.47zm-20.12-5.39q9.72 2.22 19.46 4.62 7.29-315.4 0-630.83-9.75 2.41-19.46 4.62 8.43 310.78 0 621.57z" class="BM"/><path d="M919.32 1990.39q10 2 20 4.21 8.91-308.8 0-617.61-10 2.19-20 4.21 9.83 304.6 0 609.19z" transform="translate(.22 -1.03)" fill="url(#n)"/><path d="M939.89 1993.97q-10.36-2.28-20.69-4.36 9.85-304.81 0-609.63 10.32-2.09 20.69-4.36 8.91 309.15 0 618.35zm-20-4.8q9.68 1.95 19.36 4.07 8.91-308.45 0-616.88-9.69 2.12-19.36 4.06 9.79 304.35-.01 608.72z" class="BM"/><path d="M889.55 1984.71q10 1.8 19.93 3.73 10.24-302.64 0-605.29-10 1.93-19.93 3.73 10.97 298.92 0 597.83z" transform="translate(.22 -1.03)" fill="url(#o)"/><path d="M910.03 1987.76q-10.32-2-20.6-3.85 11-299.14 0-598.28 10.27-1.86 20.6-3.86 10.19 303 0 605.99zm-19.92-4.3q9.63 1.74 19.27 3.6 10.23-302.29 0-604.59-9.64 1.88-19.27 3.6 10.94 298.7 0 597.39z" class="BM"/><path d="M1249.94 1244.67h306.57v802.76h-306.57z" fill="url(#p)"/><path d="M1557.91 2048.82h-309.37v-805.55h309.37zm-306.57-2.79h303.77v-800h-303.77z" opacity=".21"/><path d="M468.21 1932q-13.43-20.29-26.95-42.74c58.34 70.84 114.37 104.21 168.83 118.46 54.45 13.89 107.34 8.67 159.43-5.94q.48 16.27 1 32.53c-96.66 20.33-195.82 13.38-302.31-102.31z" transform="translate(.22 -1.03)" fill="url(#q)"/><path d="M771.05 2033.57l-.35.08c-96.65 20.35-195.84 13.39-302.36-102.45l-.07-.09q-14.15-21.39-28.38-45.17c58.7 71.91 115.07 105.74 169.84 120.21 54.77 14.1 107.94 8.85 160.32-5.87q.5 16.69 1 33.29zm-302.52-102.84c106.32 115.42 205.35 122.47 301.84 102.24q-.48-15.88-.94-31.78c-51.81 14.49-104.4 19.68-158.54 6-54.15-14-109.85-46.94-167.82-116.72q12.77 21.11 25.46 40.26z" class="BM"/><path d="M441.63 1877.26q.42-14.07.82-28c57.68 66.49 113.24 97.89 167.32 111.38 54.07 13.15 106.66 8.38 158.43-5.22q.45 16.27.92 32.54c-52 14.31-104.79 19.4-159.13 5.72-54.34-14.07-110.23-46.86-168.36-116.42z" transform="translate(.22 -1.03)" fill="url(#r)"/><path d="M769.67 1987.17c-52.1 14.39-105 19.53-159.46 5.82-54.45-14.07-110.47-47-168.73-116.88q.42-14.37.85-28.66c57.79 66.74 113.47 98.23 167.66 111.74 54.18 13.17 106.87 8.36 158.74-5.29q.49 16.64.94 33.27zm-327.45-110.83c58 69.23 113.76 101.9 168 115.89 54.22 13.65 106.91 8.61 158.79-5.62q-.45-15.9-.89-31.8c-51.67 13.54-104.15 18.27-158.12 5.14-54-13.47-109.41-44.79-167-111q-.37 13.63-.78 27.39z" class="BM"/><path d="M442.8 1837.33q.39-13.93.77-27.8c57.07 62 112.19 91.3 165.91 104 53.71 12.36 106 8 157.49-4.52q.42 16.27.86 32.55c-51.68 13.29-104.19 17.92-158.15 5-53.97-13.27-109.4-44.08-166.88-109.23z" transform="translate(.22 -1.03)" fill="url(#s)"/><path d="M768.38 1940.78c-51.79 13.37-104.4 18-158.48 5.1-54.08-13.28-109.63-44.2-167.25-109.67q.4-14.25.8-28.41c57.18 62.18 112.42 91.6 166.24 104.29 53.83 12.38 106.24 8 157.81-4.59q.44 16.65.88 33.28zm-325-104.39c57.36 64.84 112.67 95.52 166.52 108.74 53.85 12.89 106.24 8.3 157.82-4.92q-.43-15.9-.84-31.81c-51.37 12.51-103.57 16.79-157.18 4.45-53.61-12.65-108.62-41.93-165.56-103.65q-.37 13.56-.76 27.19z" class="BM"/><path d="M443.89 1797.75q.38-13.83.73-27.58c113 112.64 218.84 113.6 321.21 92.4q.39 16.28.79 32.55c-51.38 12.25-103.61 16.44-157.23 4.32-53.61-12.44-108.61-41.14-165.5-101.69z" transform="translate(.22 -1.03)" fill="url(#t)"/><path d="M767.22 1894.38c-51.49 12.33-103.83 16.55-157.55 4.41-53.73-12.46-108.85-41.28-165.87-102.14q.39-14.13.75-28.18c113.23 113 219.29 113.92 321.86 92.62q.34 16.65.81 33.29zm-322.69-97.6c56.75 60.26 111.63 88.86 165.13 101.25 53.5 12.09 105.62 8 156.9-4.23q-.39-15.91-.77-31.82c-102.17 21.12-207.8 20.07-320.56-92.17q-.39 13.44-.75 26.97z" class="BM"/><path d="M444.92 1758.47q.34-13.71.67-27.37c111.94 103 217.33 104.26 319.19 85.05q.36 16.27.73 32.56c-102.22 20.61-207.92 19.56-320.59-90.24z" transform="translate(.22 -1.03)" fill="url(#u)"/><path d="M766.05 1847.97c-102.42 20.73-208.34 19.77-321.27-90.57q.36-14 .69-28c112.18 103.42 217.75 104.57 319.84 85.28q.36 16.65.74 33.29zm-320.56-90.5c112.42 109.26 217.91 110.4 319.91 89.89q-.36-15.9-.71-31.82c-101.65 19.14-206.83 17.84-318.54-84.84q-.31 13.36-.66 26.78z" class="BM"/><path d="M446.72 1680.76q.28-13.54.54-27c110.15 83 214.75 84.67 315.71 69.55q.28 16.29.59 32.57c-101.25 16.54-206.11 15.01-316.84-75.12z" transform="translate(.22 -1.03)" fill="url(#v)"/><path d="M764.1 1755.13c-101.46 16.67-206.54 15.21-317.51-75.38q.28-13.83.56-27.62c110.37 83.26 215.19 84.87 316.34 69.7q.3 16.65.61 33.3zm-316.81-75.43c110.48 89.68 215.12 91.28 316.17 74.8q-.3-15.91-.58-31.83c-100.76 15.07-205.15 13.3-315.06-69.4q-.25 13.2-.53 26.43z" class="BM"/><path d="M445.86 1719.49q.31-13.63.61-27.19c111 93.14 216 94.6 317.36 77.42q.31 16.27.66 32.56c-101.72 18.61-206.98 17.31-318.63-82.79z" transform="translate(.22 -1.03)" fill="url(#w)"/><path d="M765.03 1801.56c-101.92 18.72-207.4 17.5-319.31-83.11q.33-13.92.63-27.79c111.23 93.45 216.42 94.85 318 77.6q.33 16.65.68 33.3zm-318.6-83.1c111.4 99.61 216.45 101 318 82.48q-.33-15.92-.64-31.83c-101.19 17.12-205.95 15.59-316.71-77.24q-.33 13.26-.65 26.59z" class="BM"/><path d="M447.49 1642.26q.24-13.47.48-26.88c109.39 72.61 213.66 74.49 314.23 61.46q.25 16.29.53 32.57c-100.84 14.5-205.34 12.76-315.24-67.15z" transform="translate(.22 -1.03)" fill="url(#x)"/><path d="M763.27 1708.7c-101 14.59-205.76 12.91-315.91-67.42q.25-13.75.5-27.47c109.62 72.83 214.09 74.66 314.87 61.58q.25 16.67.54 33.31zm-315.22-67.53c109.66 79.5 213.94 81.3 314.58 66.89q-.27-15.91-.51-31.84c-100.38 13-204.44 11-313.59-61.34q-.22 13.09-.48 26.29z" class="BM"/><path d="M448.16 1604q.22-13.39.42-26.76c108.74 62 212.71 64.1 313 53.19q.23 16.29.46 32.58c-100.52 12.36-204.69 10.42-313.88-59.01z" transform="translate(.22 -1.03)" fill="url(#y)"/><path d="M762.53 1662.27c-100.68 12.48-205.06 10.59-314.49-59.26q.23-13.69.43-27.34c109 62.21 213.15 64.23 313.6 53.28q.23 16.67.46 33.32zm-313.8-59.43c108.94 69.1 212.9 71.09 313.17 58.77q-.24-15.92-.44-31.84c-100.06 10.87-203.81 8.76-312.32-53.1q-.19 13.07-.41 26.17z" class="BM"/><path d="M448.75 1565.83q.19-13.33.35-26.65c108.2 51.29 211.9 53.53 311.9 44.76q.18 16.29.39 32.58c-100.18 10.28-204.07 8.15-312.64-50.69z" transform="translate(.22 -1.03)" fill="url(#z)"/><path d="M761.9 1615.82c-100.36 10.35-204.47 8.27-313.27-50.9q.19-13.64.36-27.24c108.42 51.42 212.36 53.63 312.52 44.83q.18 16.65.39 33.31zm-312.59-51.14c108.33 58.51 212 60.68 312 50.47q-.19-15.92-.37-31.84c-99.77 8.75-203.28 6.47-311.24-44.7q-.2 13.02-.39 26.07z" class="BM"/><path d="M449.24 1527.85q.15-13.3.28-26.57c107.76 40.41 211.27 42.82 311 36.2q.13 16.3.31 32.59c-99.89 8.13-203.54 5.83-311.59-42.22z" transform="translate(.22 -1.03)" fill="url(#AA)"/><path d="M761.37 1569.38c-100.09 8.19-204 5.93-312.25-42.41q.17-13.59.29-27.15c108 40.49 211.71 42.88 311.64 36.24q.17 16.67.32 33.32zm-311.57-42.71c107.81 47.77 211.25 50.1 310.94 42q-.16-15.92-.3-31.84c-99.54 6.6-202.84 4.17-310.36-36.17q-.13 13-.28 26.01z" class="BM"/><path d="M449.63 1490q.12-13.26.22-26.51c107.42 29.44 210.77 32 310.33 27.56q.11 16.29.23 32.58c-99.67 5.96-203.13 3.5-310.78-33.63z" transform="translate(.22 -1.03)" fill="url(#AB)"/><path d="M760.94 1522.97c-99.87 6-203.55 3.59-311.42-33.79q.12-13.56.22-27.09c107.65 29.46 211.21 32 311 27.56q.06 16.62.2 33.32zm-310.72-34.2c107.41 36.9 210.65 39.38 310.13 33.46q-.12-15.91-.23-31.85c-99.36 4.45-202.5 1.86-309.69-27.54q-.12 12.96-.21 25.93z" class="BM"/><path d="M449.92 1452.2q.09-13.25.15-26.46c107.2 18.38 210.43 21.1 309.86 18.83q.08 16.29.16 32.59c-99.51 3.84-202.82 1.18-310.17-24.96z" transform="translate(.22 -1.03)" fill="url(#AC)"/><path d="M760.62 1476.48c-99.71 3.84-203.23 1.24-310.81-25.09q.09-13.53.15-27c107.43 18.36 210.87 21.08 310.5 18.81q.06 16.63.16 33.28zm-310.14-25.51c107.11 26 210.21 28.58 309.52 24.82q-.09-15.93-.16-31.85c-99.23 2.27-202.25-.46-309.22-18.85q-.06 12.88-.14 25.88z" class="BM"/><path d="M450.12 1414.47q0-13.21.07-26.44c107.08 7.3 210.25 10.17 309.6 10.08q0 16.29.09 32.59c-99.4 1.62-202.61-1.15-309.76-16.23z" transform="translate(.22 -1.03)" fill="url(#AD)"/><path d="M760.41 1430.03c-99.6 1.65-203-1.11-310.4-16.33q0-13.51.07-27c107.31 7.23 210.69 10.11 310.24 10q.03 16.67.09 33.33zm-309.74-16.84c106.92 14.93 209.92 17.7 309.12 16.11q-.06-15.91-.09-31.85c-99.15.1-202.1-2.77-309-10.12q.02 12.93-.03 25.86z" class="BM"/><path d="M450.21 1376.78q0-13.21 0-26.44c107.07-3.81 210.21-.79 309.54 1.31q0 16.29 0 32.59c-99.32-.57-202.47-3.49-309.54-7.46z" transform="translate(.22 -1.03)" fill="url(#AE)"/><path d="M760.3 1383.58c-99.54-.54-202.9-3.47-310.2-7.54q0-13.52 0-27c107.31-3.92 210.66-.88 310.19 1.24q-.02 16.69.01 33.3zm-309.54-8.12l308.92 7.38q0-15.93 0-31.85c-99.13-2.08-202.06-5.09-308.9-1.39q.01 12.93-.02 25.86z" class="BM"/><path d="M450.2 1339.08q0-13.21-.06-26.46c107.17-14.88 210.33-11.71 309.69-7.43q0 16.3-.06 32.59c-99.33-2.78-202.48-5.78-309.57 1.3z" transform="translate(.22 -1.03)" fill="url(#AF)"/><path d="M760.3 1337.13c-99.53-2.74-202.89-5.82-310.21 1.24q0-13.5-.06-27c107.4-15 210.77-11.84 310.33-7.53q-.04 16.62-.06 33.29zm-309.54.6c106.86-7.18 209.79-4.12 308.92-1.36q0-15.93.06-31.85c-99.16-4.25-202.11-7.4-309 7.33q0 12.94.02 25.88z" class="BM"/><path d="M450.1 1301.35q-.06-13.23-.14-26.49c107.38-25.86 210.61-22.58 310.04-16.12q-.09 16.29-.14 32.58c-99.36-4.93-202.54-8.15-309.76 10.03z" transform="translate(.22 -1.03)" fill="url(#AG)"/><path d="M760.4 1290.68c-99.57-4.93-203-8.18-310.42 10q0-13.53-.13-27.07c107.61-26.11 211-22.75 310.69-16.25q-.09 16.61-.14 33.32zm-309.75 9.29c107-18.18 210-15 309.13-10.06q.06-15.92.14-31.84c-99.24-6.42-202.26-9.71-309.4 16q.08 12.9.13 25.9z" class="BM"/><path d="M449.89 1263.57q-.09-13.27-.21-26.56c107.7-36.84 211-33.35 310.61-24.73q-.12 16.29-.21 32.58c-99.47-7.1-202.73-10.47-310.19 18.71z" transform="translate(.22 -1.03)" fill="url(#AH)"/><path d="M760.61 1244.23c-99.67-7.11-203.14-10.52-310.83 18.7q-.09-13.55-.21-27.13c107.93-37.09 211.48-33.56 311.25-24.89q-.12 16.65-.21 33.32zm-310.17 17.91c107.23-29.14 210.28-25.8 309.55-18.7q.09-15.93.21-31.85c-99.37-8.57-202.5-12-310 24.58q.15 12.99.24 25.97z" class="BM"/><path d="M449.58 1225.69q-.12-13.29-.27-26.63c108.11-47.65 211.62-44 311.37-33.23q-.16 16.29-.29 32.58c-99.61-9.27-203-12.8-310.81 27.28z" transform="translate(.22 -1.03)" fill="url(#AI)"/><path d="M760.92 1197.78c-99.81-9.28-203.41-12.86-311.45 27.31q-.13-13.59-.28-27.21c108.35-48 212.07-44.25 312-33.42q-.14 16.66-.27 33.32zm-310.79 26.45c107.58-40 210.76-36.5 310.18-27.25q.12-15.93.27-31.85c-99.55-10.71-202.83-14.3-310.71 33q.14 13.1.26 26.1z" class="BM"/><path d="M448.68,1149.56q-.19-13.39-.41-26.85c109.27-68.8,213.22-64.79,313.49-49.78q-.22,16.29-.43,32.58C661.27,1092,557.5,1088.1,448.68,1149.56Z" transform="translate(.22 -1.03)" fill="url(#AJ)"/><path d="M761.86 1104.9c-100.26-13.58-204.24-17.52-313.3 44.13q-.19-13.69-.41-27.44c109.51-69.18 213.68-65.1 314.14-50q-.23 16.66-.43 33.31zm-312.64 43.13c108.59-61.28 212.15-57.47 312-44q.21-15.91.42-31.84c-100.06-14.93-203.79-18.87-312.83 49.55q.23 13.23.41 26.29z" class="BM"/><path d="M449.18 1187.7q-.17-13.35-.34-26.73c108.64-58.32 212.34-54.49 312.33-41.59q-.2 16.29-.36 32.58c-99.81-11.41-203.37-15.11-311.63 35.74z" transform="translate(.22 -1.03)" fill="url(#AK)"/><path d="M761.34 1151.34c-100-11.44-203.78-15.2-312.28 35.8q-.15-13.65-.34-27.32c108.88-58.66 212.8-54.77 313-41.8q-.21 16.67-.38 33.32zm-311.61 34.87c108-50.72 211.38-47.08 311-35.69q.16-15.93.35-31.84c-99.78-12.84-203.27-16.6-311.67 41.38q.17 13.1.32 26.15z" class="BM"/><path d="M448.08 1111.25q-.22-13.47-.47-27c110-79.07 214.25-74.86 314.84-57.77q-.27 16.29-.5 32.57c-100.35-15.62-204.38-19.69-313.87 52.2z" transform="translate(.22 -1.03)" fill="url(#AL)"/><path d="M762.48 1058.46c-100.56-15.68-204.8-19.83-314.51 52.3q-.22-13.77-.48-27.58c110.25-79.5 214.7-75.21 315.5-58q-.27 16.62-.51 33.28zm-313.84 51.23c109.25-71.66 213.07-67.67 313.23-52.08q.23-15.92.48-31.83c-100.39-17-204.41-21.14-314.17 57.51q.24 13.23.46 26.4z" class="BM"/><path d="M447.4,1072.74q-.25-13.54-.53-27.15c110.84-89.1,215.4-84.68,316.37-65.53q-.3,16.28-.57,32.57C662,994.92,557.64,990.64,447.4,1072.74Z" transform="translate(.22 -1.03)" fill="url(#AM)"/><path d="M763.22 1012.03c-100.9-17.77-205.44-22.12-315.92 60.25q-.26-13.85-.54-27.75c111.08-89.57 215.86-85 317-65.81q-.28 16.65-.54 33.31zm-315.24 59.11c110-81.82 214.12-77.63 314.63-60q.25-15.91.55-31.82c-100.77-19-205.11-23.39-315.7 65.25q.25 13.33.5 26.57z" class="BM"/><path d="M446.63,1034q-.28-13.63-.6-27.33c111.77-98.85,216.7-94.19,318.09-73q-.33,16.29-.63,32.56C662.4,946.44,557.73,942,446.63,1034Z" transform="translate(.22 -1.03)" fill="url(#AN)"/><path d="M764.02 965.6c-101.29-19.82-206.17-24.4-317.51 68q-.3-13.93-.61-27.93c112-99.37 217.17-94.61 318.76-73.34q-.33 16.64-.64 33.27zm-316.8 66.76c110.88-91.72 215.33-87.32 316.22-67.63q.3-15.91.62-31.83c-101.19-21.06-205.9-25.62-317.41 72.73q.26 13.4.57 26.73z" class="BM"/><path d="M445.77,995q-.31-13.72-.65-27.53c56.39-55.12,110.93-79.69,164.09-89.26,53.17-9.26,105-3.52,155.89,9q-.36,16.27-.69,32.56C662.88,898,557.84,893.28,445.77,995Z" transform="translate(.22 -1.03)" fill="url(#AO)"/><path d="M764.93 919.19c-101.72-21.84-207-26.67-319.28 75.4q-.33-14-.67-28.13c56.52-55.4 111.18-80.07 164.45-89.67 53.28-9.29 105.18-3.5 156.22 9.1q-.37 16.65-.72 33.3zm-318.6 74.13c111.83-101.34 216.66-96.71 318-75q.33-15.92.68-31.82c-50.79-12.53-102.53-18.19-155.58-8.95-53.05 9.54-107.47 34-163.73 88.85q.31 13.5.63 26.92z" class="BM"/><path d="M444.83,955.7q-.34-13.83-.7-27.75C501.08,868.2,556,841.52,609.48,831.11,663,821,715,827.22,766.17,840.81q-.39,16.26-.76,32.54c-51-12.85-102.87-18.72-156.12-9.21C556,874,501.39,899.18,444.83,955.7Z" transform="translate(.22 -1.03)" fill="url(#AP)"/><path d="M765.94 872.78c-51.11-12.9-103.07-18.82-156.43-9.29-53.36 9.83-108.12 35.11-164.8 91.84q-.36-14.13-.72-28.35c57.08-60 112.12-86.84 165.71-97.28 53.59-10.11 105.73-3.86 157 9.79q-.38 16.64-.76 33.29zm-320.55 81.19c56.44-56.31 111-81.46 164.12-91.27 53.15-9.5 104.91-3.66 155.81 9.14q.36-15.9.74-31.81c-51.08-13.51-103-19.66-156.36-9.61-53.37 10.38-108.17 37-165 96.42q.36 13.64.69 27.13z" class="BM"/><path d="M443.82,916.09q-.37-14-.76-28c57.56-64.2,112.9-92.9,166.71-104.1,53.81-10.85,106.1-4.21,157.56,10.4q-.42,16.26-.82,32.54c-51.27-13.89-103.37-20.22-157-9.91C556,827.69,500.94,855,443.82,916.09Z" transform="translate(.22 -1.03)" fill="url(#AQ)"/><path d="M767.04 826.38c-51.37-13.95-103.58-20.32-157.26-10-53.68 10.67-108.84 38-166.09 99.37q-.37-14.25-.77-28.6c57.68-64.52 113.15-93.33 167.07-104.56 53.93-10.88 106.32-4.18 157.89 10.5q-.43 16.65-.84 33.29zm-322.66 88c57-60.87 111.94-88.09 165.41-98.72 53.46-10.3 105.46-4 156.63 9.82q.39-15.9.8-31.8c-51.36-14.53-103.53-21.13-157.23-10.31-53.7 11.15-108.92 39.74-166.34 103.6q.38 13.75.73 27.39z" class="BM"/><path d="M442.73,876.14q-.39-14.07-.8-28.23c58.2-68.46,114-99.07,168.16-111,54.17-11.57,106.72-4.47,158.48,11.13q-.45,16.28-.88,32.54c-51.55-14.91-103.91-21.69-157.83-10.62C556,781.37,500.47,810.65,442.73,876.14Z" transform="translate(.22 -1.03)" fill="url(#AR)"/><path d="M768.22 779.97c-51.65-15-104.11-21.79-158.14-10.71-54 11.45-109.61 40.81-167.48 106.56q-.4-14.39-.82-28.86c58.33-68.79 114.25-99.52 168.53-111.49 54.29-11.6 106.95-4.45 158.81 11.23q-.46 16.66-.9 33.27zm-324.92 94.4c57.62-65.25 113-94.45 166.79-105.86 53.81-11 106.06-4.32 157.51 10.53q.42-15.9.86-31.79c-51.65-15.52-104.1-22.57-158.15-11-54.09 11.9-109.73 42.4-167.79 110.53q.39 13.85.78 27.61z" class="BM"/><path d="M770.84 742.74l114.33 135.05 1.15 1130.46-115.48 94.46V742.74z" fill="url(#AS)"/><path d="M770.49 2103.45V741.79l.62.72 114.41 135.15v.13l1.15 1130.62-.13.11zm.73-1359.76v1358.28l114.78-93.9-1.18-1130.1z" class="BM"/><g fill="#080808"><path d="M220.44 1983.55c765.58 439.54 2025.57-199.15 2411.59 130.78"/><path d="M220.44 1983.55c49.53 16.91 98.65 31.51 148 43.22s98.83 20.63 148.38 27.28c99.07 13.39 198.4 17.78 297.9 16.61 199-2.4 398.43-25.28 599.93-50.3l304.5-37.13c102.39-11.41 205.78-21.12 310.66-24.9 52.43-1.92 105.22-2.28 158.29-.07 26.51 1 53.15 3 79.72 5.43l20 2.23c6.66.77 13.28 1.41 19.95 2.46 13.32 2 26.57 3.64 39.87 6.21l19.86 3.64 19.83 4.28 9.87 2.19 9.86 2.54 19.62 5.15 19.49 6 9.68 3.06 9.61 3.48c6.39 2.38 12.79 4.5 19.08 7.09l18.76 8.06c6.25 2.52 12.31 5.82 18.41 8.75l9.09 4.51c3 1.43 5.94 3.33 8.89 5l17.47 10.32 16.78 11.37c21.76 15.92 41.72 33.89 58.08 54.33a394.76 394.76 0 0 0-70.32-30.25l-17.93-5.36-18.19-4.27c-6.01-1.41-12.15-2.5-18.22-3.65s-12-2.42-18.25-3.07l-18.34-2.36-18.43-1.7-9.17-.82-9.25-.46-18.42-1-18.52-.27-9.21-.18-9.29.15-18.49.24-18.56.74c-24.67.89-49.48 3-74.19 5.08l-37.17 3.91-18.59 2.24-9.28 1.06-9.31 1.23c-49.6 6.45-99.28 14.23-149.09 22.51l-300.87 52.83c-101.09 17.43-203.14 33.73-306.29 46.46s-207.48 22-312.68 25.3-211.38.24-317.08-12.3c-105.61-12.37-210.94-35.15-311.27-71.69-50.11-18.33-98.91-40.07-145.2-65.91s-90.29-55.14-129.97-89.27z"/></g><path d="M195.18,2130.76l13.31.42q13.11.43,17.15.43,3.62,0,30.56-.85l.86.74v5.33l-.86.74q-7.33.22-11.34.64a13.84,13.84,0,0,0-5.8,1.6q-1.81,1.17-2.4,5.48a94.74,94.74,0,0,0-.58,12l-.22,24.49v49.31l.11,20.76a142.75,142.75,0,0,0,.64,15.55c.35,2.35.87,3.91,1.54,4.69a8,8,0,0,0,3.89,2q2.88.79,14.16,1.22l.86.64v5.33l-.86.85q-.52,0-18.74-.64-7.56-.21-11.82-.21-3.3,0-30.46.85l-.85-.85v-5.33l.85-.64a111.92,111.92,0,0,0,13.21-1.06,9.87,9.87,0,0,0,4.42-1.65c.74-.68,1.34-2.11,1.81-4.32s.72-7.09.8-14.69l.1-22.47v-49.31l-.21-20.77q-.1-12.14-.59-15.65c-.32-2.35-.81-3.91-1.49-4.69a7.73,7.73,0,0,0-3.88-1.92q-2.88-.73-14.17-1.17l-.85-.74v-5.33Z" transform="translate(.22 -1.03)" fill="url(#AT)"/><path d="M195.27 2281.4l-1.06-1v-5.64l1.07-.8h.11a109.13 109.13 0 0 0 13.15-1.06 9.47 9.47 0 0 0 4.26-1.57c.68-.61 1.26-2 1.7-4.13s.72-7.08.8-14.62l.1-22.47v-49.31l-.18-20.83c-.07-8.05-.27-13.31-.58-15.62s-.79-3.78-1.41-4.51a7.56 7.56 0 0 0-3.72-1.81c-1.89-.48-6.63-.87-14.09-1.16h-.12l-1.08-.9v-5.63l1.07-.94 13.45.43 17.13.43c2.45 0 12.73-.29 30.55-.85h.14l1.07.94v5.62l-1.06.93h-.12c-4.87.15-8.68.36-11.32.64a13.57 13.57 0 0 0-5.66 1.55c-1.11.72-1.87 2.48-2.24 5.24a93.78 93.78 0 0 0-.58 11.93l-.22 24.5v49.31l.11 20.76a142 142 0 0 0 .64 15.5c.34 2.27.83 3.79 1.46 4.51a7.71 7.71 0 0 0 3.72 1.87c1.89.53 6.63.93 14.09 1.21h.1l1.08.8v5.64l-1 1h-.15c-.36 0-6.49-.21-18.75-.64l-11.81-.21c-2.24 0-12.49.28-30.45.85zm30.59-1.53c2.89 0 6.87.07 11.83.21l18.6.64.65-.65v-5l-.63-.47c-7.45-.28-12.21-.7-14.14-1.23a8.18 8.18 0 0 1-4-2.08c-.73-.83-1.26-2.42-1.63-4.86a144.16 144.16 0 0 1-.64-15.59l-.11-20.77v-49.31l.22-24.5a95.38 95.38 0 0 1 .58-12c.41-3 1.25-4.88 2.55-5.73a14.3 14.3 0 0 1 6-1.65c2.63-.28 6.42-.49 11.24-.63l.65-.57v-5l-.64-.56-30.44.85c-2.72 0-8.49-.14-17.16-.43l-13.17-.42-.64.56v5l.65.57c7.44.28 12.19.68 14.11 1.17a8 8 0 0 1 4.06 2c.73.84 1.24 2.43 1.57 4.86s.52 7.62.59 15.7l.21 20.77v49.31l-.1 22.47c-.07 7.59-.35 12.55-.81 14.76s-1.11 3.77-1.91 4.5a9.94 9.94 0 0 1-4.59 1.73 109.48 109.48 0 0 1-13.15 1.07l-.63.47v5l.65.64 30.23-.83z" class="BM"/><path d="M266.67,2131.5l.85-.74q18.42.85,25.13.85l49.84-1.07q21.3,0,34.93,4a59.9,59.9,0,0,1,24.23,13.84,65.63,65.63,0,0,1,16.08,22.9,71.07,71.07,0,0,1,5.49,27.85,84.14,84.14,0,0,1-5,28.43A82.92,82.92,0,0,1,404,2252.75a77.87,77.87,0,0,1-21,17.94,75.83,75.83,0,0,1-23.59,9.11,126.57,126.57,0,0,1-24.18,2.29q-8.31,0-31.31-.64-7.56-.21-10-.21-7.35,0-17.78.85l-.86-.85v-3.52l.86-1.06a55.74,55.74,0,0,0,7.18-4q.92-.79,1.5-18.63t.58-27.21v-39.09l-.11-24.17q0-7.87-.21-12.83a40.42,40.42,0,0,0-.74-7.09,8.14,8.14,0,0,0-1.23-3,5.28,5.28,0,0,0-2.23-1.44,25.74,25.74,0,0,0-5.28-1l-8.09-.64-.85-.74Zm39.4,139a131.08,131.08,0,0,0,25,2.13q24.81,0,39.67-8.31a51.57,51.57,0,0,0,22.2-24.6q7.35-16.29,7.35-36.74,0-30.14-16.08-46.75t-50.69-16.61a172.33,172.33,0,0,0-27.48,2.13q-.85,17.46-.85,39.4v33.44l.21,31.31Q305.43,2255,306.07,2270.48Z" transform="translate(.22 -1.03)" fill="url(#AU)"/><path d="M276.22 2281.41l-1.07-1.06v-3.78l1-1.25a58 58 0 0 0 7.12-3.94c.29-.35.88-3.21 1.38-18.39l.58-27.2v-39.09l-.11-24.17c0-5.21-.07-9.52-.21-12.82a40.39 40.39 0 0 0-.73-7 8 8 0 0 0-1.16-2.85 4.91 4.91 0 0 0-2.1-1.34 24.24 24.24 0 0 0-5.18-1l-8.2-.65-1.05-.92v-5.63l1.07-.94h.14l25.11.85 49.84-1.07c14.17 0 25.95 1.35 35 4a60.5 60.5 0 0 1 24.36 13.92 66.37 66.37 0 0 1 16.17 23 71.9 71.9 0 0 1 5.51 28 84.89 84.89 0 0 1-5 28.55 83.38 83.38 0 0 1-14.21 25.34 78.57 78.57 0 0 1-21.07 18 76.5 76.5 0 0 1-23.7 9.14 127.28 127.28 0 0 1-24.24 2.3c-5.51 0-16.05-.22-31.32-.64l-10-.21c-4.89 0-10.86.28-17.76.85zm17.91-1.54c1.69 0 5.06.07 10 .21l31.3.64a127.54 127.54 0 0 0 24.11-2.28 76.18 76.18 0 0 0 23.49-9.07 77.7 77.7 0 0 0 20.88-17.87 82.56 82.56 0 0 0 14.16-25.08 84.23 84.23 0 0 0 5-28.32 71.16 71.16 0 0 0-5.46-27.72 65.8 65.8 0 0 0-16-22.78 59.83 59.83 0 0 0-24.09-13.76c-9-2.65-20.74-4-34.84-4l-49.8 1.13c-4.49 0-12.9-.28-25-.85l-.63.56v5l.65.57 8 .63a25.92 25.92 0 0 1 5.37 1 5.59 5.59 0 0 1 2.38 1.55 8.52 8.52 0 0 1 1.29 3.11 39.72 39.72 0 0 1 .75 7.15c.14 3.31.22 7.64.22 12.85l.1 24.17v39.09c0 6.17-.19 15.33-.58 27.22-.6 18-1.28 18.59-1.61 18.88a57 57 0 0 1-7.19 4l-.73.91v3.26l.64.64c6.8-.56 12.74-.84 17.61-.84zm37.17-8a132.56 132.56 0 0 1-25.09-2.13l-.27-.06v-.26c-.42-10.25-.64-18.54-.64-24.62l-.21-31.31v-33.44c0-14.6.29-27.86.85-39.42v-.28h.28a173.06 173.06 0 0 1 27.53-2.13c23.06 0 40.2 5.62 50.94 16.71s16.17 26.9 16.17 47c0 13.62-2.48 26-7.38 36.88a52.16 52.16 0 0 1-22.34 24.76c-9.92 5.54-23.3 8.4-39.82 8.4zm-24.7-2.75a132.36 132.36 0 0 0 24.7 2.07c16.4 0 29.7-2.78 39.5-8.26a51.51 51.51 0 0 0 22.06-24.45c4.86-10.76 7.32-23.08 7.32-36.6 0-19.9-5.38-35.55-16-46.51s-27.58-16.51-50.45-16.51a173.31 173.31 0 0 0-27.11 2.11c-.56 11.48-.84 24.64-.84 39.11v33.44l.21 31.31c0 6.04.23 14.22.63 24.34z" class="BM"/><path d="M441.13,2131.5l.86-.74q36.52.63,46.75.64,34.92,0,62.19-.64l.53.74q-2.65,10.23-3.94,32.06l-.64.85h-5.21l-1-.85a15.8,15.8,0,0,0,.1-1.71,103.93,103.93,0,0,0-1.38-17.25q-6.7-3-18.58-3.88t-17.84-.91q-8.42,0-21.51,1.17l-.43,17-.32,19.49-.32,21.62q11.51.63,21.19.64t16.4-.64c4.4-.43,7-.87,7.72-1.33a4.45,4.45,0,0,0,1.71-2.67,39.56,39.56,0,0,0,1-7l.43-6.6.85-.86h4.9l.85.86q-.21,11.61-.53,23.32l.53,24-.85.85h-4.9l-.85-.85-.75-6.39q-1-7.45-1.38-8.89a4.76,4.76,0,0,0-2-2.5q-1.54-1.07-7.94-1.71t-17.57-.64q-6.18,0-18.85.54-.54,8.94-.53,29.81,0,22.36.53,32.91H500q25.88,0,32.37-.64a42.19,42.19,0,0,0,12.35-3.09q1-2.44,3.15-11.34c1.45-5.92,2.29-9.64,2.5-11.13l1.06-.74h5.12l.85.74a148.07,148.07,0,0,0-1.87,16q-.9,11.4-.9,19.49l-.75.85q-20.34-.65-53.24-.64l-29-.21q-10.12,0-21.09.85l-.85-.85v-3.52l.85-1.06a55.44,55.44,0,0,0,7.19-4q.9-.79,1.49-18.63t.59-27.21v-39.09l-.11-24.17q0-7.87-.21-12.83a40.18,40.18,0,0,0-.75-7.09,8,8,0,0,0-1.22-3,5.33,5.33,0,0,0-2.24-1.44,25.61,25.61,0,0,0-5.27-1l-8.09-.64-.86-.74Z" transform="translate(.22 -1.03)" fill="url(#AV)"/><path d="M450.7 2281.41l-1.06-1.06v-3.78l1-1.25a58 58 0 0 0 7.12-3.94c.29-.35.87-3.21 1.37-18.39l.59-27.2v-39.09l-.11-24.17c0-5.21-.07-9.52-.21-12.82a40.14 40.14 0 0 0-.74-7 7.63 7.63 0 0 0-1.16-2.85 4.87 4.87 0 0 0-2.09-1.34 24.37 24.37 0 0 0-5.19-1l-8.19-.65-1.06-.92v-5.63l1.07-.94h.18l46.75.64 62.18-.64h.18l.73 1v.16c-1.76 6.76-3.08 17.52-3.93 32v.1l-.8 1.07h-5.52l-1.19-1.05v-.18a15.54 15.54 0 0 0 .1-1.67 103.57 103.57 0 0 0-1.35-17c-4.4-1.92-10.56-3.19-18.3-3.79-7.9-.59-13.89-.9-17.81-.9-5.5 0-12.62.39-21.18 1.14l-.42 16.74-.63 40.78c7.5.41 14.51.62 20.84.62 6.49 0 12-.22 16.37-.64 5.4-.52 7.1-1 7.58-1.28a4.23 4.23 0 0 0 1.55-2.47 40.36 40.36 0 0 0 1-6.91l.44-6.72 1-1h5.18l1.05 1.06v.14l-.53 23.33.53 24.09-1.05 1.05h-5.17l-1-1-.76-6.51c-.63-4.92-1.09-7.89-1.37-8.84a4.39 4.39 0 0 0-1.84-2.31c-1-.68-3.59-1.23-7.77-1.65s-10.13-.64-17.54-.64c-4 0-10.25.18-18.53.52-.34 5.94-.51 15.86-.51 29.49 0 14.65.17 25.6.52 32.57h19.2c17.16 0 28-.21 32.34-.64a42.25 42.25 0 0 0 12.12-3c.63-1.68 1.67-5.43 3.08-11.17 1.44-5.9 2.28-9.64 2.49-11.09v-.15l1.28-.89h5.34l1.1 1v.19a149.1 149.1 0 0 0-1.86 15.93c-.6 7.55-.9 14.1-.9 19.47v.12l-.94 1.08h-.16c-13.49-.42-31.4-.64-53.23-.64l-29-.21c-6.73 0-13.82.28-21.06.85zm21.22-1.54l29 .21 53.09.63.56-.63c0-5.37.31-11.89.9-19.39a155 155 0 0 1 1.83-15.82l-.6-.53h-4.88l-.86.6c-.24 1.58-1.05 5.19-2.48 11-1.48 6-2.51 9.73-3.16 11.39l-.05.13-.13.06a43.25 43.25 0 0 1-12.46 3.11c-4.32.43-15.22.64-32.4.64h-19.95v-.32c-.35-7-.53-18-.53-32.93 0-13.88.18-23.92.53-29.83v-.31h.31l18.86-.53c7.43 0 13.36.22 17.61.64s7 1 8.09 1.76a5.05 5.05 0 0 1 2.1 2.69 90.58 90.58 0 0 1 1.4 8.95l.73 6.27.67.67h4.62l.65-.65-.53-23.81.53-23.2-.65-.64h-4.62l-.66.66-.42 6.47a40.72 40.72 0 0 1-1 7.05 4.89 4.89 0 0 1-1.85 2.86c-.51.31-1.88.8-7.87 1.38-4.4.42-9.93.64-16.44.64s-13.57-.22-21.21-.64h-.33l.65-41.43.43-17.35h.31c8.71-.78 16-1.17 21.54-1.17 3.94 0 10 .3 17.86.91s14.21 1.92 18.7 3.91l.17.07v.18a104.91 104.91 0 0 1 1.39 17.31 13.48 13.48 0 0 1-.1 1.57l.74.65h4.91l.48-.63c.84-14.36 2.16-25.08 3.9-31.87l-.33-.47-62 .64c-6.78 0-22.47-.22-46.63-.64l-.64.56v5l.66.57 8 .63a25.64 25.64 0 0 1 5.36 1 5.59 5.59 0 0 1 2.38 1.55 8.19 8.19 0 0 1 1.29 3.11 40.43 40.43 0 0 1 .76 7.15c.14 3.31.21 7.64.21 12.85l.11 24.17v39.09c0 6.17-.2 15.33-.59 27.22-.59 18-1.27 18.59-1.6 18.88a57.57 57.57 0 0 1-7.2 4l-.73.91v3.26l.64.64c7.23-.57 14.23-.85 20.93-.85z" class="BM"/><path d="M572.36 2282.09l-1-.85v-5.54l1-.85q7.77-.1 10-.8a8.52 8.52 0 0 0 4-2.77q1.75-2.07 7.08-13.58l11.18-24.28 29-65.6q8.21-19.28 16.29-38.55h6.93l45.47 106.92 6.07 14.27q2.65 6.08 6.12 13.21 3.47 7.13 4.8 8.41a8.88 8.88 0 0 0 3.3 2q2 .69 8.78.8l.86.85v5.54l-.86.85q-11.28-1-20.34-1-17.67.52-35.35 1l-.86-.85v-5.54l.86-.85q11.93-.21 14.91-1a3.55 3.55 0 0 0 3-3.68 18.27 18.27 0 0 0-1.49-6.18L679 2231.5h-61.69l-11.61 27.27q-3.09 7.35-3.09 10.75a4.17 4.17 0 0 0 2.87 3.94q2.88 1.29 14.49 1.39l1 .85v5.54l-.86.85q-13.73-.86-24.06-.85-11.77 0-23.69.85zm48.57-59.75h53.88l-26.73-64.21z" transform="translate(.22 -1.03)" fill="url(#AW)"/><path d="M731.71 2281.41h-.16c-7.48-.64-14.31-1-20.31-1l-35.35 1h-.14l-1.06-1v-5.82l1-1h.14c7.88-.14 12.87-.48 14.83-1a3.22 3.22 0 0 0 2.73-3.35 18 18 0 0 0-1.47-6l-13-32.27h-61.17l-11.53 26.9c-2 4.83-3.06 8.4-3.06 10.62 0 1.65.87 2.83 2.67 3.63s6.7 1.29 14.35 1.36h.13l1.17 1v5.83l-1.06 1.06h-.16c-9.08-.57-17.17-.85-24-.85-7.8 0-15.74.28-23.62.85h-.14l-1.19-1.05v-5.84l1.17-1h.13c5.13-.07 8.46-.33 9.91-.79a8.26 8.26 0 0 0 3.84-2.66c1.14-1.35 3.51-5.89 7-13.5l11.18-24.28 29-65.6 16.29-38.55.09-.2h7.3l.09.2 51.54 121.2a415.4 415.4 0 0 0 6.12 13.19c2.3 4.74 3.87 7.49 4.72 8.31a8.62 8.62 0 0 0 3.18 1.9c1.27.45 4.19.71 8.68.78h.14l1 1v5.82zm-56.34-1.34l.65.64 35.21-.95c6 0 12.79.32 20.22.95l.64-.64v-5.26l-.65-.65c-4.54-.08-7.41-.35-8.76-.82a9.22 9.22 0 0 1-3.42-2c-.93-.88-2.52-3.67-4.86-8.51s-4.37-9.18-6.13-13.21l-51.46-121h-6.47l-16.21 38.34-29 65.61-11.18 24.28c-3.6 7.78-5.93 12.24-7.13 13.66a8.85 8.85 0 0 1-4.15 2.87c-1.53.48-4.79.74-10 .82l-.75.66v5.23l.73.66c7.85-.56 15.77-.84 23.53-.84 6.85 0 14.9.28 23.93.84l.65-.64v-5.25l-.75-.66c-7.78-.08-12.52-.54-14.49-1.42a4.48 4.48 0 0 1-3.08-4.25c0-2.31 1.05-6 3.11-10.89l11.7-27.47h62.17l.08.22 13.1 32.48a18.51 18.51 0 0 1 1.52 6.3 3.86 3.86 0 0 1-3.24 4c-2 .54-7 .88-14.85 1l-.66.65zm.18-58.41h-54.92l.2-.48 27.48-65 .31.75zm-53.89-.69h52.86l-26.22-63z" class="BM"/><path d="M742.36 2131.5l.85-.74q26.41.85 30.46.85 3.62 0 30.56-.85l.85.74v5.33l-.85.74q-7.35.22-11.34.64a13.84 13.84 0 0 0-5.8 1.6q-1.82 1.17-2.4 5.48a94.4 94.4 0 0 0-.59 12l-.21 24.49v47.07q0 17.68.21 24.71l.54 18.42h21.72q26 0 32.43-.64a43.55 43.55 0 0 0 12.41-3.09q1.17-2.65 3.35-12.24 2.18-9.59 2.29-11.08l1-.85H863l.74.85a163.27 163.27 0 0 0-1.75 16.51q-.91 12.24-.91 19.81l-.85.85q-20.24-.65-53.14-.64l-31.1-.21q-10.65 0-21.73.85l-.85-.85v-3.52l.85-1.06 7.25-4.16s.86-5.07 1.33-13.73.69-19.1.69-31.31v-45.69l-.21-20.77q-.12-12.14-.59-15.65-.47-3.51-1.49-4.69a7.77 7.77 0 0 0-3.89-1.92c-1.91-.49-6.64-.88-14.16-1.17l-.85-.74z" transform="translate(.22 -1.03)" fill="url(#AX)"/><path d="M754.37 2281.41l-1.06-1.06v-3.78l1-1.24 7.14-4.08c.27-.32.65-2.45 1.25-13.53.46-8.63.69-19.16.69-31.29v-45.69l-.17-20.77c-.08-8.05-.27-13.31-.59-15.62s-.78-3.78-1.41-4.51a7.56 7.56 0 0 0-3.71-1.81c-1.89-.48-6.63-.87-14.09-1.16h-.12l-1.08-.9v-5.63l1.07-.94h.13l30.45.85c2.45 0 12.73-.29 30.55-.85h.14l1.06.94v5.63l-1.06.93h-.12c-4.87.15-8.67.36-11.31.64a13.57 13.57 0 0 0-5.66 1.55c-1.12.72-1.87 2.48-2.24 5.24a93.45 93.45 0 0 0-.59 11.93l-.21 24.5v47.07l.21 24.7.53 18.09h21.39c17.23 0 28.13-.21 32.4-.64a43.58 43.58 0 0 0 12.18-3 92.37 92.37 0 0 0 3.28-12.06c1.44-6.35 2.21-10.06 2.28-11v-.14l1.16-1h5.5l1 1.09v.17a159.46 159.46 0 0 0-1.75 16.46c-.6 8.11-.91 14.77-.91 19.79v.14l-1.05 1h-.15c-13.43-.42-31.3-.64-53.13-.64l-31.1-.21a280.72 280.72 0 0 0-21.7.85zm21.85-1.54l31.1.21 53 .63.65-.64c0-5 .31-11.65.91-19.7s1.17-13.49 1.73-16.38l-.54-.61h-4.93l-.76.68c-.13 1.18-.88 4.78-2.29 11-1.47 6.48-2.58 10.5-3.37 12.31l-.06.13h-.12a44.5 44.5 0 0 1-12.51 3.11c-4.28.43-15.21.64-32.46.64h-22.05l-.54-18.75c-.14-4.68-.21-12.76-.21-24.72v-47.07l.21-24.5a95 95 0 0 1 .59-12c.41-3 1.24-4.88 2.55-5.73a14.29 14.29 0 0 1 6-1.65c2.64-.28 6.42-.49 11.25-.63l.64-.57v-5l-.63-.56-30.44.85c-2.74 0-12.95-.28-30.34-.85l-.63.56v5l.64.57c7.44.28 12.19.68 14.12 1.17a8 8 0 0 1 4.06 2c.72.84 1.24 2.43 1.57 4.86s.52 7.62.59 15.7l.21 20.77v45.69c0 12.14-.23 22.68-.69 31.32-.7 13.12-1.18 13.68-1.42 13.95s-1.36 1.14-7.27 4.2l-.74.91v3.26l.64.64c7.24-.52 14.54-.8 21.54-.8z" class="BM"/><path d="M924.09,2137.57l-.85-.74v-5.33l.85-.74q18.21.85,28.12.85,3.72,0,29.5-.85,8.31-.21,12-.22,14.38,0,22.79,2.88a26.7,26.7,0,0,1,13.53,10.17,28.13,28.13,0,0,1,5.11,16.56q0,11.82-8.52,21.94T999,2196.57a114.45,114.45,0,0,1,19,3.09,36.45,36.45,0,0,1,12.88,6.23,29.27,29.27,0,0,1,8.58,10.92,36.34,36.34,0,0,1,3.14,15.55,48.92,48.92,0,0,1-2.13,14,41.56,41.56,0,0,1-7.83,14.17,54.5,54.5,0,0,1-13.79,12,61.1,61.1,0,0,1-16.56,7.24,83.9,83.9,0,0,1-21,2.24q-2.56,0-15.34-.53-14.16-.33-15.34-.32-7.25,0-17.78.85l-.85-.85v-3.52l.85-1.06q6.18-2.77,7.13-3.84T941.4,2254q.58-17.78.58-27.15v-39.09l-.1-24.17q0-7.87-.21-12.83a63.52,63.52,0,0,0-.59-7.09,5.58,5.58,0,0,0-1.23-3,6.8,6.8,0,0,0-2.39-1.44,25.61,25.61,0,0,0-5.27-1Zm38.24,55.91c3.54.29,7.56.43,12,.43q22,0,30.67-7.88t8.63-21.62a26.4,26.4,0,0,0-3.3-13.58,21.08,21.08,0,0,0-10.39-8.57q-7.08-3-19.22-3a85.59,85.59,0,0,0-17.47,1.59q-1,9.59-.95,33.44Zm.21,77.64a73.47,73.47,0,0,0,16.82,1.92q15.24,0,23.86-4.9a30.2,30.2,0,0,0,12.73-13.58,43.76,43.76,0,0,0,4.1-18.9q0-15.35-8.68-24.55t-37.54-9.21q-4.8,0-11.5.42v36.32Z" transform="translate(.22 -1.03)" fill="url(#AY)"/><path d="M932.81 2281.41l-1.06-1.06v-3.78l1.05-1.25c5-2.27 6.61-3.29 7-3.75s.95-3.27 1.46-18.64l.58-27.14v-39.09l-.1-24.17c0-5.21-.07-9.52-.22-12.82a60.59 60.59 0 0 0-.58-7 5.25 5.25 0 0 0-1.13-2.8 6.36 6.36 0 0 0-2.27-1.36 24.37 24.37 0 0 0-5.19-1l-8.2-.65-1.05-.92v-5.63l1.07-.94h.14c12 .56 21.49.85 28.1.85 2.52 0 12.44-.29 29.49-.85l12-.22c9.58 0 17.28 1 22.9 2.9a27.13 27.13 0 0 1 13.7 10.29 28.65 28.65 0 0 1 5.17 16.76c0 7.93-2.89 15.38-8.6 22.16-5.4 6.42-14.11 11.16-25.9 14.12a109.71 109.71 0 0 1 17 2.9 36.87 36.87 0 0 1 13 6.29 29.6 29.6 0 0 1 8.67 11 36.77 36.77 0 0 1 3.18 15.7 49.32 49.32 0 0 1-2.15 14.15 42.07 42.07 0 0 1-7.88 14.28 55 55 0 0 1-13.77 12.13 61.62 61.62 0 0 1-16.65 7.28 84.67 84.67 0 0 1-21.12 2.25c-1.71 0-6.73-.17-15.35-.53l-15.33-.32c-4.81 0-10.79.28-17.75.85zm17.91-1.54c.78 0 6 .1 15.35.32l15.33.53a83.65 83.65 0 0 0 20.94-2.23 60.92 60.92 0 0 0 16.47-7.2 54.24 54.24 0 0 0 13.71-12 41.41 41.41 0 0 0 7.76-14 49.1 49.1 0 0 0 2.12-14 36.2 36.2 0 0 0-3.11-15.41 28.93 28.93 0 0 0-8.48-10.79 36.11 36.11 0 0 0-12.76-6.17 115.33 115.33 0 0 0-18.9-3.08l-2.13-.2 2.08-.47c12.65-2.88 21.9-7.71 27.51-14.37s8.44-14 8.44-21.72a27.93 27.93 0 0 0-5-16.36 26.5 26.5 0 0 0-13.36-10.05c-5.55-1.89-13.18-2.85-22.68-2.85-2.47 0-6.4.06-12 .21l-29.51.85c-6.59 0-16-.28-28-.85l-.63.56v5l.65.57 8 .63a25.92 25.92 0 0 1 5.37 1 7.25 7.25 0 0 1 2.52 1.52 5.94 5.94 0 0 1 1.32 3.16 64 64 0 0 1 .59 7.13c.14 3.31.21 7.64.21 12.85l.11 24.17v39.09c0 6.17-.2 15.31-.59 27.16-.52 15.88-1.15 18.54-1.63 19.07-.67.75-3 2-7.18 3.88l-.72.91v3.26l.64.64c6.83-.48 12.76-.76 17.56-.76zm28.87-7.52a74.25 74.25 0 0 1-16.91-1.93l-.26-.06v-.27l-.22-32.48v-36.64h.32c4.49-.28 8.37-.42 11.53-.42 19.24 0 32 3.13 37.79 9.31s8.77 14.52 8.77 24.79a44.08 44.08 0 0 1-4.14 19 30.57 30.57 0 0 1-12.86 13.73c-5.78 3.3-13.86 4.97-24.02 4.97zm-16.49-2.53a74 74 0 0 0 16.49 1.85c10 0 18-1.64 23.68-4.86a29.91 29.91 0 0 0 12.59-13.43 43.51 43.51 0 0 0 4.07-18.75c0-10.09-2.89-18.27-8.59-24.32s-18.24-9.1-37.29-9.1c-3.07 0-6.83.13-11.16.4v36zm11.48-76.6c-4.47 0-8.53-.14-12.06-.43h-.32v-19.49c0-15.84.33-27.1 1-33.47v-.25l.24-.05a86.26 86.26 0 0 1 17.54-1.6c8.09 0 14.61 1 19.35 3a21.46 21.46 0 0 1 10.55 8.72 26.73 26.73 0 0 1 3.35 13.75c0 9.22-2.94 16.58-8.74 21.87s-16.19 7.95-30.91 7.95zm-11.69-1.08c3.44.26 7.37.4 11.69.4 14.54 0 24.78-2.62 30.44-7.79s8.52-12.35 8.52-21.37a26.07 26.07 0 0 0-3.26-13.41 20.8 20.8 0 0 0-10.22-8.43c-4.66-2-11.09-3-19.09-3a85.83 85.83 0 0 0-17.15 1.54c-.62 6.39-.93 17.54-.93 33.15z" class="BM"/><path d="M1057.77,2131.5l.85-.74q26.42.85,30.46.85,3.62,0,30.56-.85l.86.74v5.33l-.86.74q-7.34.22-11.34.64a13.88,13.88,0,0,0-5.8,1.6q-1.82,1.17-2.4,5.48a94.74,94.74,0,0,0-.58,12l-.22,24.49v33.87q0,16.71.7,24.54a43.61,43.61,0,0,0,3,13.21,24.25,24.25,0,0,0,7,9.26q4.69,3.9,13.42,6.34a73.56,73.56,0,0,0,19.81,2.45,71.48,71.48,0,0,0,21.89-3.25q10.15-3.24,15.49-9.42t7-16.24q1.65-10.07,1.65-28v-32.8q0-8.31-.27-22.84t-1.28-16.72a6.64,6.64,0,0,0-3.72-3.31q-2.72-1.11-15.07-1.33l-.86-.85v-5l.86-1q15.75.85,25.24.85,8.09,0,25.13-.85l1,.85v5.11l-1,.85a101.18,101.18,0,0,0-13,.8,8.6,8.6,0,0,0-4.26,1.76,7.29,7.29,0,0,0-1.81,3.62q-.58,2.45-.8,14.06l-.32,24v32.37q0,19.4-1.49,30.57t-6.65,18.37a49.43,49.43,0,0,1-12.25,12q-7.08,4.86-18.16,7.46a99.92,99.92,0,0,1-23,2.61,95.4,95.4,0,0,1-26.36-3.3q-11.44-3.3-18-8.74a34.36,34.36,0,0,1-9.48-11.44,43.13,43.13,0,0,1-3.72-14.17q-.85-8.15-.86-24.87v-40.89l-.21-20.77q-.11-12.14-.59-15.65c-.32-2.35-.81-3.91-1.49-4.69a7.73,7.73,0,0,0-3.88-1.92q-2.88-.73-14.17-1.17l-.85-.74Z" transform="translate(.22 -1.03)" fill="url(#AZ)"/><path d="M1137.65 2284.49a96.14 96.14 0 0 1-26.45-3.32c-7.64-2.2-13.75-5.16-18.18-8.79a34.8 34.8 0 0 1-9.56-11.57 43.31 43.31 0 0 1-3.76-14.27c-.57-5.4-.86-13.78-.86-24.91v-40.89l-.21-20.76c-.07-8.05-.27-13.31-.58-15.62s-.79-3.78-1.41-4.51a7.56 7.56 0 0 0-3.72-1.81c-1.89-.48-6.63-.87-14.09-1.16h-.12l-1.06-.93v-5.63l1.07-.94h.13l30.45.85c2.45 0 12.73-.29 30.55-.85h.14l1.07.94v5.65l-1.06.93h-.12c-4.87.15-8.68.36-11.32.64a13.57 13.57 0 0 0-5.66 1.55c-1.11.72-1.87 2.48-2.24 5.24a93.78 93.78 0 0 0-.58 11.93l-.21 24.5v33.87c0 11.1.23 19.35.69 24.51a43.56 43.56 0 0 0 3 13.11 24 24 0 0 0 6.88 9.13c3.07 2.55 7.54 4.66 13.29 6.27a73.29 73.29 0 0 0 19.72 2.44 71.64 71.64 0 0 0 21.78-3.23c6.69-2.14 11.85-5.28 15.34-9.33s5.81-9.45 6.9-16.07 1.65-16 1.65-27.9v-32.8l-.27-22.84c-.18-9.6-.6-15.17-1.25-16.58a6.36 6.36 0 0 0-3.54-3.13c-1.76-.72-6.79-1.16-15-1.31h-.14l-1-1v-5.27l1-1.18h.17c10.41.56 18.9.85 25.22.85 5.4 0 13.85-.29 25.11-.85h.14l1.18 1.05v5.41l-1.17 1h-.12a100.09 100.09 0 0 0-13 .8 8.24 8.24 0 0 0-4.09 1.67 6.94 6.94 0 0 0-1.72 3.45c-.38 1.6-.64 6.31-.78 14l-.32 24v32.37a245.47 245.47 0 0 1-1.5 30.61c-1 7.48-3.26 13.71-6.71 18.53a49.94 49.94 0 0 1-12.34 12.11c-4.73 3.24-10.88 5.77-18.27 7.51a100.68 100.68 0 0 1-23.07 2.53zm-78.67-148.28c7.44.28 12.19.68 14.11 1.17a8 8 0 0 1 4.06 2c.73.84 1.24 2.43 1.57 4.86s.52 7.62.59 15.7l.21 20.77v40.89c0 11.1.29 19.46.85 24.83a43.27 43.27 0 0 0 3.7 14.06 34.17 34.17 0 0 0 9.39 11.33c4.35 3.58 10.38 6.49 17.93 8.67a95.54 95.54 0 0 0 26.26 3.29 100.4 100.4 0 0 0 22.92-2.6 53.88 53.88 0 0 0 18.05-7.41 49.26 49.26 0 0 0 12.16-11.95c3.39-4.72 5.61-10.85 6.6-18.22a246.49 246.49 0 0 0 1.48-30.52v-32.37l.32-24c.15-7.83.41-12.46.81-14.13a7.6 7.6 0 0 1 1.91-3.79 8.84 8.84 0 0 1 4.43-1.84 100.28 100.28 0 0 1 13-.81l.75-.66v-4.81l-.74-.66c-11.21.57-19.62.85-25 .85-6.3 0-14.74-.28-25.1-.84l-.65.73v4.74l.65.65c8.28.15 13.2.6 15.06 1.36a7 7 0 0 1 3.9 3.47c.7 1.52 1.13 7 1.31 16.86l.27 22.85v32.8c0 11.89-.56 21.31-1.66 28s-3.48 12.27-7 16.41-8.84 7.35-15.65 9.53a72.4 72.4 0 0 1-22 3.26 74.18 74.18 0 0 1-19.9-2.46c-5.84-1.64-10.4-3.79-13.54-6.4a24.81 24.81 0 0 1-7.08-9.4 44.2 44.2 0 0 1-3-13.31c-.46-5.18-.7-13.45-.7-24.57v-33.87l.22-24.5a93.18 93.18 0 0 1 .59-12c.4-3 1.24-4.88 2.54-5.73a14.3 14.3 0 0 1 6-1.65c2.63-.28 6.42-.49 11.24-.63l.65-.57v-5l-.64-.56-30.44.85c-2.74 0-12.94-.28-30.33-.85l-.64.56v5z" class="BM"/><path d="M1228.51 2131.5l.85-.74q18.42.85 25.14.85l49.84-1.07q21.3 0 34.93 4a60 60 0 0 1 24.23 13.84 65.89 65.89 0 0 1 16.08 22.9 71.24 71.24 0 0 1 5.48 27.85 84.38 84.38 0 0 1-5 28.43 82.74 82.74 0 0 1-14.22 25.19 77.72 77.72 0 0 1-21 17.94 75.83 75.83 0 0 1-23.59 9.11 126.57 126.57 0 0 1-24.18 2.29q-8.29 0-31.31-.64l-10-.21q-7.33 0-17.78.85l-.85-.85v-3.52l.85-1.06a56.24 56.24 0 0 0 7.19-4q.9-.79 1.49-18.63.59-17.84.58-27.21v-39.09l-.1-24.17q0-7.87-.21-12.83a41.18 41.18 0 0 0-.75-7.09 8 8 0 0 0-1.23-3 5.22 5.22 0 0 0-2.23-1.44 25.61 25.61 0 0 0-5.27-1l-8.1-.64-.85-.74zm39.4 139a131.22 131.22 0 0 0 25 2.13q24.81 0 39.67-8.31a51.54 51.54 0 0 0 22.21-24.6q7.34-16.29 7.34-36.74 0-30.14-16.08-46.75-16.08-16.61-50.69-16.61a172.51 172.51 0 0 0-27.48 2.13q-.84 17.46-.85 39.4v33.44l.22 31.31q.03 9.1.66 24.58z" transform="translate(.22 -1.03)" fill="url(#Aa)"/><path d="M1238.08 2281.41l-1.06-1.06v-3.78l1-1.25a57.42 57.42 0 0 0 7.11-3.94c.3-.35.88-3.21 1.38-18.39l.58-27.2v-39.09l-.1-24.17c0-5.21-.07-9.52-.22-12.82a40.39 40.39 0 0 0-.73-7 7.63 7.63 0 0 0-1.16-2.85 4.94 4.94 0 0 0-2.09-1.34 24.37 24.37 0 0 0-5.19-1l-8.2-.65-1-.92v-5.63l1.07-.94h.14l25.12.85 49.83-1.07c14.17 0 26 1.35 35 4a60.53 60.53 0 0 1 24.37 13.92 66.47 66.47 0 0 1 16.16 23 71.72 71.72 0 0 1 5.51 28 85.13 85.13 0 0 1-5 28.55 83.4 83.4 0 0 1-14.28 25.34 78.57 78.57 0 0 1-21.07 18 76.44 76.44 0 0 1-23.69 9.14 127.35 127.35 0 0 1-24.24 2.3c-5.52 0-16.06-.22-31.32-.64l-10-.21c-4.88 0-10.86.28-17.75.85zm17.91-1.54c1.69 0 5.06.07 10 .21l31.31.64a127.43 127.43 0 0 0 24.1-2.28 76.18 76.18 0 0 0 23.49-9.07 77.74 77.74 0 0 0 20.89-17.87 83 83 0 0 0 14.16-25.08 84.47 84.47 0 0 0 5-28.32 71 71 0 0 0-5.46-27.72 65.67 65.67 0 0 0-16-22.78 59.76 59.76 0 0 0-24.09-13.76c-9-2.65-20.73-4-34.83-4l-49.84 1.13c-4.48 0-12.9-.28-25-.85l-.63.56v5l.65.57 8 .63a25.92 25.92 0 0 1 5.37 1 5.59 5.59 0 0 1 2.38 1.55 8.19 8.19 0 0 1 1.29 3.11 40.43 40.43 0 0 1 .76 7.15c.14 3.31.21 7.64.21 12.85l.11 24.17v39.09c0 6.17-.2 15.33-.59 27.22-.59 18-1.28 18.59-1.61 18.88a57 57 0 0 1-7.19 4l-.73.91v3.26l.64.64c6.84-.56 12.74-.84 17.61-.84zm37.17-8a132.56 132.56 0 0 1-25.09-2.13l-.26-.06v-.26c-.42-10.25-.63-18.54-.63-24.62l-.22-31.31v-33.44c0-14.6.29-27.86.85-39.42v-.28h.27a173.24 173.24 0 0 1 27.53-2.13c23.06 0 40.2 5.62 50.94 16.71s16.18 26.9 16.18 47c0 13.62-2.49 26-7.38 36.88a52.23 52.23 0 0 1-22.35 24.76c-9.91 5.54-23.31 8.4-39.84 8.4zm-24.7-2.75a132.36 132.36 0 0 0 24.7 2.07c16.41 0 29.7-2.78 39.51-8.26a51.56 51.56 0 0 0 22.06-24.45c4.85-10.76 7.31-23.08 7.31-36.6 0-19.9-5.37-35.55-16-46.51s-27.58-16.51-50.45-16.51a173.31 173.31 0 0 0-27.15 2.08c-.55 11.48-.84 24.64-.84 39.11v33.44l.22 31.31c.02 6.07.23 14.25.64 24.37z" class="BM"/><path d="M1599.38,2263.24l-4,9.9a109.68,109.68,0,0,1-50.48,12q-38.44,0-62.46-21.83t-24-57.09q0-24.27,12-42.44a74.28,74.28,0,0,1,31.63-27.15q19.65-9,44.14-9a132.48,132.48,0,0,1,28,3,117.79,117.79,0,0,1,23.11,7.14l.75,1.06q-2.46,6-4.58,29.5l-.75.85h-5l-.85-.85-1.07-18.1a57.61,57.61,0,0,0-18.8-9.64,76,76,0,0,0-23-3.46q-18,0-32.26,7.72a53.77,53.77,0,0,0-22.15,22.36q-7.89,14.66-7.89,35.84t9.27,37.38a63.45,63.45,0,0,0,25.29,24.71q16,8.63,37.44,8.62a89.41,89.41,0,0,0,18.21-1.81,68,68,0,0,0,14.53-4.47,65.8,65.8,0,0,0,11.13-6.5Z" transform="translate(.22 -1.03)" fill="url(#Ab)"/><path d="M1545.08 2284.49c-25.6 0-46.69-7.38-62.69-21.92s-24.13-33.84-24.13-57.34c0-16.18 4-30.52 12-42.62a74.89 74.89 0 0 1 31.77-27.28c13.09-6 28-9 44.29-9a133.35 133.35 0 0 1 28.08 3 118.66 118.66 0 0 1 23.17 7.15h.09l.91 1.3-.08.17c-1.61 3.93-3.14 13.82-4.55 29.4v.11l-.92 1.05h-5.3l-1-1v-.13l-1.06-17.95a57.75 57.75 0 0 0-18.57-9.49 76.35 76.35 0 0 0-22.84-3.44 66.64 66.64 0 0 0-32.11 7.68 53.77 53.77 0 0 0-22 22.22c-5.2 9.67-7.83 21.67-7.83 35.68s3.1 26.59 9.22 37.21a63.43 63.43 0 0 0 25.15 24.58c10.59 5.69 23.13 8.58 37.28 8.58a90 90 0 0 0 18.14-1.8 68.72 68.72 0 0 0 14.46-4.45 66.53 66.53 0 0 0 11.07-6.46l.27-.19 2.13 2.64-4.17 10.21-.11.06a110.54 110.54 0 0 1-50.67 12.03zm1.28-157.51c-16.21 0-31 3-44 9a74.25 74.25 0 0 0-31.48 27c-7.92 12-11.93 26.21-11.93 42.25 0 23.3 8 42.42 23.91 56.83s36.8 21.75 62.23 21.75a109.93 109.93 0 0 0 50.21-11.94l3.92-9.6-1.48-1.83a67.49 67.49 0 0 1-10.92 6.34 69.74 69.74 0 0 1-14.61 4.5 90.6 90.6 0 0 1-18.28 1.81c-14.26 0-26.91-2.91-37.6-8.66a64.13 64.13 0 0 1-25.43-24.84c-6.17-10.72-9.31-23.36-9.31-37.55s2.67-26.23 7.93-36a54.41 54.41 0 0 1 22.28-22.5 67.42 67.42 0 0 1 32.44-7.76 77.16 77.16 0 0 1 23 3.47 58.14 58.14 0 0 1 18.9 9.7l.12.09v.16l1.06 18 .66.66h4.71l.57-.65c1.39-15.37 2.91-25.23 4.52-29.32l-.58-.83a118.55 118.55 0 0 0-23-7.08 133.25 133.25 0 0 0-27.84-3.01z" class="BM"/><path d="M1611.66,2207.86a94.2,94.2,0,0,1,4.58-29.82,69.05,69.05,0,0,1,15.6-25.61,75.6,75.6,0,0,1,26.57-18.21q15.54-6.45,35.14-6.44,36.32,0,57.83,19.75t21.51,53.94q0,24.08-10.54,43.24a73.81,73.81,0,0,1-30.19,29.82q-19.65,10.65-44.15,10.65a85.6,85.6,0,0,1-31.94-5.81,65,65,0,0,1-24.87-17.3,70.4,70.4,0,0,1-14.91-26.63A94.82,94.82,0,0,1,1611.66,2207.86Zm22.15-7a103.78,103.78,0,0,0,4.2,28,73.61,73.61,0,0,0,12.57,25.66,53.86,53.86,0,0,0,19.28,15.92,56.9,56.9,0,0,0,24.86,5.22q16.52,0,29.4-7.56t19.59-23.48q6.72-15.91,6.71-35.73,0-21.51-7.67-38.87t-21.83-25.24a63.53,63.53,0,0,0-31.41-7.88q-25.89,0-40.79,16.19T1633.81,2200.83Z" transform="translate(.22 -1.03)" fill="url(#Ac)"/><path d="M1688.22 2284.49a86.39 86.39 0 0 1-32.08-5.83 65.75 65.75 0 0 1-25-17.39 71 71 0 0 1-15-26.76 92 92 0 0 1 0-57.6 69.8 69.8 0 0 1 15.68-25.74 76.25 76.25 0 0 1 26.69-18.3c10.36-4.29 22.23-6.47 35.27-6.47 24.19 0 43.72 6.68 58.06 19.85s21.62 31.41 21.62 54.19c0 16-3.56 30.63-10.58 43.4a74.49 74.49 0 0 1-30.33 30c-13.1 7.05-28.01 10.65-44.33 10.65zm5.53-157.4c-13 0-24.73 2.16-35 6.41a75.6 75.6 0 0 0-26.45 18.13 69 69 0 0 0-15.53 25.49 91.22 91.22 0 0 0 .06 57.19 70.4 70.4 0 0 0 14.83 26.5 65.2 65.2 0 0 0 24.74 17.22 85.86 85.86 0 0 0 31.83 5.78c16.19 0 31-3.57 44-10.61a73.77 73.77 0 0 0 30-29.69c7-12.66 10.5-27.16 10.5-43.07 0-22.58-7.2-40.64-21.4-53.69s-33.55-19.66-57.56-19.66zm1.17 147.81a57.47 57.47 0 0 1-25-5.25 54.53 54.53 0 0 1-19.4-16 74.11 74.11 0 0 1-12.62-25.78 104.36 104.36 0 0 1-4.22-28.05c0-21.07 5-37.24 15-48s23.77-16.29 41-16.29a64.12 64.12 0 0 1 31.58 7.92c9.46 5.27 16.86 13.82 22 25.4s7.69 24.69 7.69 39c0 13.19-2.26 25.26-6.73 35.86s-11.12 18.59-19.74 23.65a57.65 57.65 0 0 1-29.54 7.54zm-5.21-138.76c-17.08 0-30.71 5.41-40.54 16.08s-14.82 26.68-14.82 47.58a103.86 103.86 0 0 0 4.19 27.87 73.45 73.45 0 0 0 12.51 25.54 54 54 0 0 0 19.15 15.83 61 61 0 0 0 53.94-2.33c8.49-5 15-12.83 19.46-23.32s6.68-22.5 6.68-35.6c0-14.23-2.57-27.26-7.64-38.73s-12.35-19.89-21.68-25.08a63.5 63.5 0 0 0-31.23-7.84z" class="BM"/><path d="M1979.41,2131.08l1,.85v5.22l-.85.74q-11.71.33-14.54,1.17a6.59,6.59,0,0,0-4,2.83q-1.17,2-1.33,7.72t-.59,32.48v49.09q0,10.65.32,24.07t1.33,15.6a6.25,6.25,0,0,0,3.68,3.2q2.65,1,15.12,1.33l.85.75v5.21l-1,.86q-17.36-1-30.24-1-8.73,0-29.71,1l-1-.86v-5.11l.85-.85q11.72-.32,14.54-1.17a6.62,6.62,0,0,0,4-2.82q1.17-2,1.38-7.83t.54-32.38V2153l-36.74,76.89q-13.85,28.86-24.18,54.31h-4.15q-6-13.74-9.8-21.94L1814,2156.53V2231q0,10.44.27,24t1.33,15.7a6.69,6.69,0,0,0,3.73,3.2c1.77.71,6.82,1.14,15.12,1.28l.85.85v5.11l-1,1-6.82-.32q-10.54-.54-18.1-.53-3.42,0-25.46.85l-.85-.85v-5.11l.85-1q11.71-.21,14.49-1.07a6.76,6.76,0,0,0,4-2.87c.81-1.35,1.28-3.87,1.38-7.56s.27-14.59.48-32.7V2182.2q0-9.69-.26-23.59t-1.28-16.08a6.45,6.45,0,0,0-3.68-3.25q-2.65-1.07-15.12-1.28l-.85-.85V2132l1-1q7.35.52,19.81.53,11.71,0,20.44-.53,9,20.65,17.15,37.38l40.36,82.85,36.42-75.93q14.81-30.78,19.92-44.3,10.23.52,20.13.53Q1967.27,2131.61,1979.41,2131.08Z" transform="translate(.22 -1.03)" fill="url(#Ad)"/><path d="M1879.33 2283.53h-4.61l-.08-.21-9.8-21.93-50.25-104.42v73l.26 24c.18 8.95.61 14.19 1.3 15.56a6.37 6.37 0 0 0 3.55 3c1.72.69 6.77 1.12 15 1.26h.14l1 1.05v5.39l-1.16 1.17-7-.33c-7-.35-13-.53-18.08-.53-2.31 0-10.87.28-25.44.85h-.15l-1.06-1.06v-5.36l1-1.17h.15c7.74-.14 12.58-.5 14.39-1a6.46 6.46 0 0 0 3.8-2.73c.78-1.29 1.23-3.78 1.33-7.39l.48-32.69v-48.82l-.26-23.59c-.17-9.32-.6-14.54-1.25-15.94a6.2 6.2 0 0 0-3.49-3.08c-1.73-.69-6.78-1.11-15-1.25h-.14l-1-1.05v-5.4l1.17-1.16h.15c4.85.35 11.5.53 19.79.53 7.79 0 14.66-.18 20.42-.53h.24l.1.22c5.94 13.74 11.71 26.31 17.14 37.37l40 82.22 36.12-75.3c9.82-20.42 16.52-35.32 19.9-44.27l.09-.24h.25c6.74.35 13.51.53 20.11.53 6 0 13.06-.18 21.07-.53h.14l1.17 1.05v5.52l-1.06.93h-.12c-7.74.21-12.6.6-14.45 1.16a6.31 6.31 0 0 0-3.8 2.67c-.74 1.26-1.18 3.8-1.28 7.56l-.59 32.47v49.09l.32 24.06c.21 8.9.65 14.07 1.3 15.47a6 6 0 0 0 3.49 3c1.72.66 6.77 1.1 15 1.31h.12l1.06.93v5.53l-1.17 1h-.14c-11.52-.64-21.69-1-30.23-1-5.79 0-15.78.32-29.7 1h-.14l-1.17-1v-5.41l1-1.05h.14c7.75-.21 12.61-.6 14.45-1.16a6.34 6.34 0 0 0 3.8-2.67c.74-1.25 1.19-3.83 1.33-7.66s.32-14.81.54-32.37v-76.66l-36.1 75.53c-9.19 19.16-17.32 37.43-24.16 54.3zm-4.16-.68h3.7c6.83-16.83 14.94-35 24.1-54.12l37.39-78.25v79.67l-.53 32.39c-.14 3.92-.62 6.62-1.44 8a7 7 0 0 1-4.18 3c-1.92.58-6.66 1-14.49 1.19l-.66.65v4.82l.74.66 29.59-.95c8.52 0 18.65.32 30.12.95l.74-.66v-4.91l-.64-.56c-8.36-.22-13.3-.66-15.11-1.35a6.58 6.58 0 0 1-3.86-3.37c-.71-1.51-1.15-6.66-1.37-15.74l-.32-24.08v-49.09l.59-32.49c.11-3.91.56-6.51 1.38-7.89a7 7 0 0 1 4.19-3c1.91-.58 6.66-1 14.5-1.18l.64-.57v-4.91l-.74-.66c-8 .35-15 .53-21 .53a381.58 381.58 0 0 1-19.9-.52c-3.42 9-10.09 23.83-19.84 44.1l-36.72 76.56-40.68-83.48c-5.4-11-11.13-23.52-17-37.18-5.73.35-12.53.52-20.23.52-8.21 0-14.83-.18-19.68-.52l-.75.75v4.81l.66.65c8.34.15 13.28.57 15.1 1.3a6.82 6.82 0 0 1 3.86 3.42c.7 1.52 1.13 6.82 1.31 16.22l.26 23.6v48.81l-.47 32.7c-.1 3.7-.58 6.32-1.44 7.73a7.09 7.09 0 0 1-4.18 3c-1.88.58-6.6.93-14.43 1.07l-.67.75v4.85l.65.64 25.32-.84c5 0 11.15.18 18.12.53l6.66.31.75-.75v-4.83l-.65-.66c-8.35-.14-13.29-.57-15.11-1.29a7.06 7.06 0 0 1-3.9-3.36c-.74-1.48-1.19-6.67-1.37-15.86l-.27-24v-75.99l51.56 107.09 9.75 21.79z" class="BM"/><path d="M1992.75,2130.76q26.84.85,34.19.85,10,0,22.47-.53,13.2-.43,16.29-.43,14.91,0,24.66,3.09a32.49,32.49,0,0,1,16.13,11.29q6.39,8.2,6.39,19.81a41,41,0,0,1-4.47,18.53A44.57,44.57,0,0,1,2096,2198.6a51.57,51.57,0,0,1-33.23,11.71,81.31,81.31,0,0,1-14.7-1.49l-1.81-6.5,1-1.06a61.4,61.4,0,0,0,13,1.81q14,0,22.42-9.21t8.47-23.59q0-14.49-8.79-23.11t-26.57-8.63a72.15,72.15,0,0,0-21.3,3.62q-1,8.2-1,39.62v49.31l.11,20.76a142.75,142.75,0,0,0,.64,15.55c.35,2.35.87,3.91,1.54,4.69a8,8,0,0,0,3.89,2q2.88.79,14.17,1.22l.85.64v5.33l-.85.85q-27.17-.86-30.57-.85-3.62,0-30.46.85l-.85-.85v-5.33l.85-.64a111.7,111.7,0,0,0,13.21-1.06,9.87,9.87,0,0,0,4.42-1.65c.74-.68,1.34-2.11,1.81-4.32s.72-7.09.8-14.69l.1-22.47v-49.31l-.21-20.77q-.11-12.14-.59-15.65t-1.49-4.69a7.73,7.73,0,0,0-3.88-1.92q-2.88-.73-14.17-1.17l-.85-.74v-5.33Z" transform="translate(.22 -1.03)" fill="url(#Ae)"/><path d="M1992.84 2281.4l-1.06-1v-5.64l1.07-.8h.11a109.13 109.13 0 0 0 13.15-1.06 9.41 9.41 0 0 0 4.26-1.57c.68-.61 1.26-2 1.7-4.13s.72-7.08.8-14.62l.1-22.47v-49.31l-.21-20.76c-.07-8.05-.27-13.31-.58-15.62s-.79-3.78-1.41-4.51a7.56 7.56 0 0 0-3.72-1.81c-1.89-.48-6.63-.87-14.09-1.16h-.12l-1.06-.93v-5.63l1.07-.94h.13l34.18.85c6.68 0 14.23-.18 22.45-.53l16.31-.43c9.93 0 18.26 1.05 24.76 3.1a33 33 0 0 1 16.3 11.41c4.29 5.5 6.46 12.24 6.46 20a41.49 41.49 0 0 1-4.51 18.68 45 45 0 0 1-12.55 15.34 51.74 51.74 0 0 1-33.44 11.79 81.74 81.74 0 0 1-14.76-1.5h-.21l-1.91-6.89 1.21-1.35h.2a61.72 61.72 0 0 0 12.92 1.8c9.15 0 16.61-3.06 22.16-9.1s8.38-13.91 8.38-23.36-2.92-17.21-8.69-22.87-14.62-8.53-26.33-8.53a71.76 71.76 0 0 0-21 3.54c-.62 5.57-.93 18.8-.93 39.36v49.31l.1 20.76a142 142 0 0 0 .64 15.5c.34 2.27.83 3.79 1.46 4.51a7.71 7.71 0 0 0 3.72 1.87c1.89.53 6.63.93 14.09 1.21h.11l1.07.8v5.64l-1.06 1h-.15l-30.55-.85c-2.31 0-12.7.28-30.45.85zm30.59-1.53c2.32 0 12.55.28 30.43.84l.65-.64v-5l-.63-.47c-7.45-.28-12.21-.7-14.14-1.23a8.18 8.18 0 0 1-4-2.08c-.73-.83-1.26-2.42-1.63-4.86a147 147 0 0 1-.64-15.59l-.11-20.77v-49.31c0-20.86.33-34.2 1-39.66v-.22l.21-.06a72.52 72.52 0 0 1 21.4-3.64c11.9 0 20.92 2.94 26.81 8.72s8.89 13.65 8.89 23.36-2.88 17.64-8.56 23.82-13.31 9.32-22.66 9.32a61.41 61.41 0 0 1-12.88-1.78l-.7.78 1.71 6.11a81.23 81.23 0 0 0 14.42 1.45 51.19 51.19 0 0 0 33-11.64 44.23 44.23 0 0 0 12.36-15.12 40.69 40.69 0 0 0 4.44-18.37c0-7.63-2.13-14.22-6.32-19.6a32.27 32.27 0 0 0-16-11.18c-6.43-2-14.69-3.07-24.55-3.07-2 0-7.34.14-16.28.43-8.23.35-15.79.53-22.48.53-4.92 0-16.38-.28-34.06-.85l-.64.56v5l.65.57c7.44.28 12.19.68 14.11 1.17a8 8 0 0 1 4.06 2c.73.84 1.24 2.43 1.57 4.86s.52 7.62.59 15.7l.21 20.77v49.31l-.1 22.47c-.07 7.59-.35 12.55-.81 14.76s-1.11 3.77-1.91 4.5a9.94 9.94 0 0 1-4.59 1.73 109.27 109.27 0 0 1-13.15 1.07l-.63.47v5l.65.64 30.31-.8z" class="BM"/><path d="M2109.5,2282.09l-1-.85v-5.54l1-.85q7.77-.1,10-.8a8.54,8.54,0,0,0,4-2.77q1.76-2.07,7.08-13.58l11.19-24.28,29-65.6q8.2-19.28,16.3-38.55H2194l45.47,106.92,6.07,14.27q2.67,6.08,6.13,13.21t4.79,8.41a9,9,0,0,0,3.3,2q2,.69,8.79.8l.85.85v5.54l-.85.85q-11.3-1-20.34-1-17.68.52-35.36,1l-.85-.85v-5.54l.85-.85q11.92-.21,14.91-1a3.55,3.55,0,0,0,3-3.68,18.27,18.27,0,0,0-1.49-6.18l-13.1-32.48h-61.66l-11.61,27.27q-3.09,7.35-3.09,10.75,0,2.67,2.88,3.94t14.48,1.39l1,.85v5.54l-.85.85q-13.74-.86-24.07-.85Q2121.43,2281.24,2109.5,2282.09Zm48.56-59.75H2212l-26.73-64.21Z" transform="translate(.22 -1.03)" fill="url(#Af)"/><path d="M2268.85 2281.41h-.16c-7.48-.64-14.32-1-20.31-1l-35.35 1h-.15l-1-1v-5.82l1-1h.13c7.89-.14 12.87-.48 14.83-1a3.22 3.22 0 0 0 2.73-3.35 17.8 17.8 0 0 0-1.47-6l-13-32.27h-61.21l-11.52 27.06c-2 4.83-3.06 8.4-3.06 10.62 0 1.65.88 2.83 2.68 3.63s6.69 1.29 14.34 1.36h.13l1.17 1v5.83l-1.06 1.06h-.15c-9.08-.57-17.17-.85-24.05-.85-7.79 0-15.74.28-23.62.85h-.14l-1.18-1.05v-5.84l1.17-1h.12c5.13-.07 8.46-.33 9.92-.79a8.19 8.19 0 0 0 3.83-2.66c1.14-1.35 3.51-5.89 7-13.5l11.19-24.28 29-65.6 16.29-38.55.09-.2h7.37l.09.2 51.55 121.2c1.76 4 3.82 8.45 6.11 13.19s3.87 7.49 4.72 8.31a8.62 8.62 0 0 0 3.18 1.9c1.28.45 4.2.71 8.68.78h.14l1.05 1v5.82zm-56.34-1.34l.65.64 35.21-.95c6 0 12.78.32 20.22.95l.64-.64v-5.26l-.66-.65c-4.54-.08-7.41-.35-8.75-.82a9.18 9.18 0 0 1-3.43-2c-.92-.88-2.52-3.67-4.86-8.51s-4.36-9.18-6.13-13.21l-51.46-121h-6.47l-16.2 38.34-29 65.61-11.19 24.28c-3.6 7.78-5.93 12.24-7.13 13.66a8.85 8.85 0 0 1-4.15 2.87c-1.53.48-4.79.74-10 .82l-.75.66v5.23l.74.66c7.85-.56 15.76-.84 23.52-.84 6.85 0 14.9.28 23.94.84l.64-.64v-5.25l-.75-.66c-7.78-.08-12.52-.54-14.49-1.42a4.49 4.49 0 0 1-3.08-4.25c0-2.31 1-6 3.12-10.89l11.69-27.47h62.12l.09.22 13.09 32.48a18.51 18.51 0 0 1 1.52 6.3 3.86 3.86 0 0 1-3.23 4c-2 .54-7 .88-14.86 1l-.65.65zm.17-58.41h-54.91l.2-.48 27.47-65 .31.75zm-53.89-.69h52.87l-26.23-63z" class="BM"/><path d="M2282.58,2282l-1-1v-4.89l1-.86a75.27,75.27,0,0,0,10.38-.74q3.89-.65,5-2.13a10.07,10.07,0,0,0,1.49-4.79q.38-3.3.75-14.91t.37-16.62v-86q0-5.43-2-8a8.66,8.66,0,0,0-5.38-3.3,71.16,71.16,0,0,0-11.61-.8l-.85-.85v-5l.85-1q14.7.52,19.28.53,10.76,0,17.68-.53l34,44.09,49.95,62.62q9,11.4,18.42,21.62V2177q0-3.84-.37-16.35t-.91-15.87q-.54-3.35-1.86-4.52t-5-1.76a74.39,74.39,0,0,0-9.95-.69l-.86-.86V2132l.86-1q8.63.52,24.6.53,14.58,0,21.19-.53l1,1v4.89l-.85.86a69.94,69.94,0,0,0-10.87.8q-3.82.69-4.79,2.28a12.19,12.19,0,0,0-1.33,4.69q-.37,3.09-.75,14.7t-.37,16.72v50.58l.11,29.29q.21,14.37.42,28.86a169.55,169.55,0,0,0-18.42-4.47l-7.56-8.95-22.69-27.69-72.2-90.2v81.68q0,4.9.37,17.47t.91,15.23a8.47,8.47,0,0,0,1.38,3.67,8,8,0,0,0,3.68,1.87q2.82.84,11.66.95l.85.86v5l-.85.85a150.2,150.2,0,0,0-17.89-.74Q2294.51,2281.24,2282.58,2282Z" transform="translate(.22 -1.03)" fill="url(#Ag)"/><path d="M2431.71 2285.16l-.46-.16a170.66 170.66 0 0 0-18.38-4.46h-.11l-.08-.09-7.56-8.95-22.69-27.69-71.6-89.45v80.71c0 3.31.13 9.18.37 17.46s.55 13.43.9 15.17a8.23 8.23 0 0 0 1.31 3.52 7.78 7.78 0 0 0 3.52 1.76c1.84.56 5.73.87 11.56.94h.14l1.05 1.05v5.29l-1.07 1.07h-.17a151.42 151.42 0 0 0-17.84-.74c-10.54 0-19.89.25-27.78.74h-.15l-1.17-1.16v-5.2l1.17-1h.13a75 75 0 0 0 10.33-.74c2.49-.41 4.1-1.08 4.79-2a9.74 9.74 0 0 0 1.42-4.62c.25-2.17.5-7.18.75-14.88l.37-16.61v-86c0-3.52-.64-6.16-1.9-7.83a8.37 8.37 0 0 0-5.18-3.17 71.49 71.49 0 0 0-11.54-.8h-.14l-1.05-1.05V2131l1-1.18h.16l19.27.53c7.15 0 13.09-.18 17.65-.53h.18l.12.15 34 44.09 49.94 62.61a424.37 424.37 0 0 0 17.82 21v-81.7c0-2.55-.12-7.89-.37-16.34-.25-8.3-.56-13.62-.9-15.83s-.94-3.59-1.76-4.32-2.46-1.3-4.83-1.67a73.84 73.84 0 0 0-9.91-.69h-.14l-1.05-1v-5.17l1.05-1.18h.17c5.69.35 13.95.53 24.58.53 9.69 0 16.81-.18 21.16-.53h.16l1.17 1.17v5.19l-1 1h-.14a70.77 70.77 0 0 0-10.81.79c-2.44.44-4 1.16-4.56 2.13a11.89 11.89 0 0 0-1.28 4.55c-.25 2-.5 7-.75 14.67l-.37 16.71v50.58l.11 29.29zm-18.59-5.26a182.42 182.42 0 0 1 17.9 4.3l-.42-28.38-.11-29.29v-50.56c0-3.45.13-9.08.37-16.73.25-7.83.5-12.65.75-14.73a12.44 12.44 0 0 1 1.38-4.82c.7-1.16 2.34-2 5-2.45a70.52 70.52 0 0 1 10.78-.8l.66-.66v-4.61l-.75-.75c-4.38.34-11.47.52-21.06.52-10.54 0-18.76-.18-24.46-.52l-.66.73v4.63l.66.66a75.54 75.54 0 0 1 9.87.69c2.53.41 4.23 1 5.17 1.84s1.61 2.39 2 4.73.66 7.47.91 15.91l.37 16.36v83.3l-.59-.64c-6.24-6.81-12.45-14.09-18.44-21.64l-49.95-62.62-33.86-44c-4.56.35-10.45.52-17.52.52-3.08 0-9.51-.18-19.13-.53l-.66.74v4.74l.65.65a71.79 71.79 0 0 1 11.54.81 9 9 0 0 1 5.58 3.43c1.35 1.79 2 4.57 2 8.24v86c0 3.35-.12 8.79-.37 16.63s-.5 12.72-.75 14.93a10.22 10.22 0 0 1-1.56 5c-.8 1.08-2.51 1.82-5.22 2.26a73.09 73.09 0 0 1-10.31.75l-.75.67v4.6l.75.75c7.88-.49 17.18-.73 27.67-.73a155.08 155.08 0 0 1 17.77.72l.63-.63v-4.72l-.65-.66c-5.91-.07-9.71-.39-11.62-1a8.2 8.2 0 0 1-3.84-2 8.72 8.72 0 0 1-1.46-3.83c-.36-1.8-.66-6.8-.91-15.28l-.37-17.48v-82.65l.61.76 72.2 90.2 22.68 27.69z" class="BM"/><path d="M2459.5,2140.77l-1-1v-4.47l1-1,30.14-5a36.62,36.62,0,0,1,6.23,5.65,106.26,106.26,0,0,1,8.84,12.72q5.79,9.33,15,26t17.57,33.39l10.86-17.26,12.25-20.44,22.58-38.66a80.35,80.35,0,0,0,8.09.42q2.45,0,7.46-.42l.85.85v2q-5.32,5.86-16.51,21.25T2566.15,2179q-5.47,8.68-13.47,21.83t-8.73,15.81a23.42,23.42,0,0,0-.75,6.29v15.65l.11,16a103.29,103.29,0,0,0,.69,12.94c.39,2.45.92,4,1.6,4.79a7.93,7.93,0,0,0,3.83,1.86q2.82.75,14.12,1.17l.85.64v5.33l-.85.85q-.54,0-18.75-.64-7.56-.21-11.82-.21-3.41,0-30.46.85l-.85-.85v-5.33l.85-.64a109.66,109.66,0,0,0,13.31-1.06,9.71,9.71,0,0,0,4.32-1.65,7.66,7.66,0,0,0,1.76-3.94,74.93,74.93,0,0,0,.74-12l.21-18.21v-20.24q-2.34-5.74-15.65-27.58l-9.37-15.23q-4.49-7.24-11.24-16.88t-10.49-13.1c-2.49-2.3-4.4-3.65-5.75-4.05S2465.39,2140.77,2459.5,2140.77Z" transform="translate(.22 -1.03)" fill="url(#Ah)"/><path d="M2502.61 2281.4l-1.06-1v-5.64l1.07-.8h.11a107.6 107.6 0 0 0 13.26-1.06 9.25 9.25 0 0 0 4.15-1.57 7.26 7.26 0 0 0 1.65-3.76c.42-1.91.67-5.92.74-11.91l.21-18.21v-20.16c-1.58-3.84-6.83-13.08-15.6-27.47l-9.37-15.23c-3-4.78-6.73-10.46-11.23-16.86s-8-10.77-10.44-13-4.33-3.59-5.61-4-4.94-.57-10.77-.57h-.14l-1.16-1.16v-4.75l1.13-1.14h.11l30.28-5 .11.08a36.91 36.91 0 0 1 6.29 5.7 106.66 106.66 0 0 1 8.88 12.77c3.85 6.19 8.88 14.94 15 26 6 10.89 11.8 21.94 17.3 32.86l10.54-16.74 12.25-20.44 22.68-38.84h.22a79.61 79.61 0 0 0 8.06.42c1.63 0 4.12-.14 7.43-.42h.16l1.06 1.07v2.29l-.09.1c-3.52 3.87-9.06 11-16.48 21.22s-13 18.31-16.66 24.05l-13.47 21.83c-5.33 8.83-8.21 14-8.69 15.73a23 23 0 0 0-.73 6.19v15.65l.1 16a102.57 102.57 0 0 0 .69 12.89c.38 2.37.89 3.93 1.51 4.62a7.69 7.69 0 0 0 3.67 1.76c1.85.49 6.57.88 14 1.16h.11l1.07.8v5.64l-1 1h-.14c-.37 0-6.5-.21-18.76-.64l-11.81-.21c-2.31 0-12.56.28-30.45.85zm30.59-1.53c2.89 0 6.87.07 11.83.21l18.6.64.65-.65v-5l-.63-.47c-7.46-.28-12.19-.68-14.08-1.18a8.23 8.23 0 0 1-4-2c-.73-.81-1.28-2.43-1.68-5a102 102 0 0 1-.7-13l-.11-16v-15.65a24 24 0 0 1 .76-6.38c.51-1.81 3.38-7 8.77-15.9l13.48-21.84c3.61-5.72 9.24-13.85 16.68-24.08s12.9-17.27 16.44-21.18v-1.75l-.64-.64c-3.25.27-5.71.41-7.33.41a79.51 79.51 0 0 1-7.91-.4l-22.47 38.47-12.24 20.49-11.19 17.77-.27-.54a1059.8 1059.8 0 0 0-17.57-33.38c-6.08-11.06-11.11-19.79-14.95-26a106.14 106.14 0 0 0-8.81-12.68 36.43 36.43 0 0 0-6.06-5.51l-29.89 5-.78.78v4.19l.76.76c5.89 0 9.43.2 10.82.6s3.33 1.75 5.88 4.12 6 6.74 10.54 13.15 8.29 12.11 11.25 16.9l9.37 15.23c8.84 14.51 14.12 23.8 15.68 27.63v.13 20.24l-.21 18.21c-.07 6.12-.32 10.06-.75 12.05a7.87 7.87 0 0 1-1.86 4.12 9.74 9.74 0 0 1-4.48 1.73 107.51 107.51 0 0 1-13.26 1.07l-.63.47v5l.65.64 30.36-.78z" class="BM"/><path d="M220.53 1881.31A1336.28 1336.28 0 0 0 365 1933.57a1381.1 1381.1 0 0 0 147.76 34.87c99.32 17.88 199.81 26.08 300.53 27.44 12.56.41 25.18.25 37.77.33h18.89l18.91-.31 18.9-.25 18.91-.45 37.82-1.19 37.83-1.73 37.84-2.08 37.85-2.54 37.85-2.82c101-8.07 202-19.33 303.2-32l304.85-39 153.74-17.4 38.62-3.79 38.7-3.52 38.81-3 19.42-1.41 19.46-1.23 19.46-1.22 19.52-.91 19.52-.84 19.57-.6 39.16-.89c13.07-.2 26.17-.07 39.25 0l9.81.08 9.84.25 19.66.52c13.11.41 26.26 1.11 39.36 1.83 26.27 2 52.51 4.07 78.69 7.76l19.61 2.81 19.56 3.41 9.76 1.71 9.74 2.06 19.4 4.19 19.27 5 9.6 2.54 9.53 2.94c6.33 2 12.7 3.79 19 6l18.67 6.94c6.25 2.15 12.28 5.08 18.38 7.64s12.18 5.15 18 8.35 11.8 6 17.61 9.13l17 10.19c22.18 14.29 42.81 30.71 60.48 49.62a375.87 375.87 0 0 0-67.92-35l-17.71-6.55-18-5.45c-5.94-1.81-12.1-3.29-18.17-4.8s-12.06-3.17-18.28-4.18l-18.42-3.48-18.55-2.78-9.25-1.37-9.35-1-18.63-1.91c-25-1.7-49.91-3.26-75.05-2.94-50.12-.3-100.42 2.92-150.7 7.63l-37.71 3.87-37.72 4.29-18.86 2.31-18.86 2.53-18.86 2.5-18.88 2.6-18.87 2.62-18.88 2.79q-18.87 2.75-37.76 5.75l-37.8 5.78-37.83 6-151.64 24.52-305.94 44.63c-102.69 12.7-206.2 22.48-310.37 26.93-52.07 2.31-104.32 3.07-156.64 2-13.06-.09-26.16-.67-39.23-1s-26.17-.89-39.25-1.73l-19.61-1.13-19.61-1.45-39.2-3.27c-104.4-9.84-208.57-28.82-308.65-60.86-50-16.1-98.92-35.28-145.82-58.31s-91.96-49.48-133.56-80.23z" transform="translate(.22 -1.03)" fill="url(#Ai)"/></svg>